<svg xmlns="http://www.w3.org/2000/svg" width="295" height="70"><g fill="none" fill-rule="evenodd"><path fill="#D7201F" d="M0 0h120v70H0z"/><path fill="#333" fill-rule="nonzero" d="M132.688 30v-5.184h5.36v-1.104h-5.36v-3.888h5.68V18.72h-6.976V30h1.296zm8.56 0v-4.448c0-.63.179-1.157.536-1.584.357-.427.936-.677 1.736-.752l.848-.08-.112-1.12-.464.032c-1.28.107-2.139.613-2.576 1.52v-1.36h-1.264V30h1.296zm7.648.112c.555 0 1.099-.093 1.632-.28.533-.187.97-.44 1.312-.76l-.432-.944c-.757.619-1.59.928-2.496.928-.821 0-1.456-.232-1.904-.696-.448-.464-.693-1.15-.736-2.056h5.696v-.48c0-1.184-.293-2.115-.88-2.792-.587-.677-1.397-1.016-2.432-1.016-.715 0-1.352.17-1.912.512-.56.341-.995.819-1.304 1.432-.31.613-.464 1.32-.464 2.12 0 1.259.35 2.245 1.048 2.96.699.715 1.656 1.072 2.872 1.072zm1.936-4.64h-4.528c.075-.779.317-1.381.728-1.808.41-.427.957-.64 1.64-.64.672 0 1.195.21 1.568.632.373.421.57 1.027.592 1.816zm4.48-5.184v-1.456h-1.568v1.456h1.568zM155.168 30v-7.792h-1.296V30h1.296zm5.744 0l2.208-6.032L165.312 30h1.248l2.896-7.792h-1.296l-2.224 6.256-2.224-6.256h-1.12l-2.256 6.256-2.208-6.256h-1.344L159.68 30h1.232zm11.584-9.712v-1.456h-1.568v1.456h1.568zM172.352 30v-7.792h-1.296V30h1.296zm3.712 0V18.72h-1.296V30h1.296zm3.712 0V18.72h-1.296V30h1.296zm3.856-9.712v-1.456h-1.568v1.456h1.568zM183.488 30v-7.792h-1.296V30h1.296zm5.84 2.992c1.173 0 2.059-.296 2.656-.888.597-.592.896-1.47.896-2.632v-7.264h-1.296v1.344a2.558 2.558 0 00-1.04-1.136c-.459-.267-.997-.4-1.616-.4-.683 0-1.288.16-1.816.48-.528.32-.939.773-1.232 1.36-.293.587-.44 1.264-.44 2.032s.147 1.445.44 2.032c.293.587.704 1.04 1.232 1.36.528.32 1.133.48 1.816.48.63 0 1.176-.133 1.64-.4a2.44 2.44 0 001.032-1.152v1.376c0 .768-.192 1.352-.576 1.752-.384.4-.95.6-1.696.6a4.945 4.945 0 01-1.536-.224c-.459-.15-.95-.395-1.472-.736l-.432.96c.928.704 2.075 1.056 3.44 1.056zm-.144-4.304c-.757 0-1.352-.248-1.784-.744-.432-.496-.648-1.181-.648-2.056 0-.864.216-1.544.648-2.04.432-.496 1.027-.744 1.784-.744.757 0 1.347.248 1.768.744.421.496.632 1.176.632 2.04 0 .875-.213 1.56-.64 2.056-.427.496-1.013.744-1.76.744zm9.552 1.424c.555 0 1.099-.093 1.632-.28.533-.187.97-.44 1.312-.76l-.432-.944c-.757.619-1.59.928-2.496.928-.821 0-1.456-.232-1.904-.696-.448-.464-.693-1.15-.736-2.056h5.696v-.48c0-1.184-.293-2.115-.88-2.792-.587-.677-1.397-1.016-2.432-1.016-.715 0-1.352.17-1.912.512-.56.341-.995.819-1.304 1.432-.31.613-.464 1.32-.464 2.12 0 1.259.35 2.245 1.048 2.96.699.715 1.656 1.072 2.872 1.072zm1.936-4.64h-4.528c.075-.779.317-1.381.728-1.808.41-.427.957-.64 1.64-.64.672 0 1.195.21 1.568.632.373.421.57 1.027.592 1.816zM209.328 30v-5.184h5.36v-1.104h-5.36v-3.888h5.68V18.72h-6.976V30h1.296zm10.72.112c.555 0 1.099-.093 1.632-.28.533-.187.97-.44 1.312-.76l-.432-.944c-.757.619-1.59.928-2.496.928-.821 0-1.456-.232-1.904-.696-.448-.464-.693-1.15-.736-2.056h5.696v-.48c0-1.184-.293-2.115-.88-2.792-.587-.677-1.397-1.016-2.432-1.016-.715 0-1.352.17-1.912.512-.56.341-.995.819-1.304 1.432-.31.613-.464 1.32-.464 2.12 0 1.259.35 2.245 1.048 2.96.699.715 1.656 1.072 2.872 1.072zm1.936-4.64h-4.528c.075-.779.317-1.381.728-1.808.41-.427.957-.64 1.64-.64.672 0 1.195.21 1.568.632.373.421.57 1.027.592 1.816zm5.808 4.64c.555 0 1.053-.123 1.496-.368a2.536 2.536 0 001.032-1.072V30h1.264v-7.792h-1.296v4.4c0 .725-.208 1.31-.624 1.752-.416.443-.965.664-1.648.664-.597 0-1.035-.163-1.312-.488-.277-.325-.416-.835-.416-1.528v-4.8h-1.296v4.832c0 1.013.235 1.779.704 2.296.47.517 1.168.776 2.096.776zm9.664 0c.555 0 1.099-.093 1.632-.28.533-.187.97-.44 1.312-.76l-.432-.944c-.757.619-1.59.928-2.496.928-.821 0-1.456-.232-1.904-.696-.448-.464-.693-1.15-.736-2.056h5.696v-.48c0-1.184-.293-2.115-.88-2.792-.587-.677-1.397-1.016-2.432-1.016-.715 0-1.352.17-1.912.512-.56.341-.995.819-1.304 1.432-.31.613-.464 1.32-.464 2.12 0 1.259.35 2.245 1.048 2.96.699.715 1.656 1.072 2.872 1.072zm1.936-4.64h-4.528c.075-.779.317-1.381.728-1.808.41-.427.957-.64 1.64-.64.672 0 1.195.21 1.568.632.373.421.57 1.027.592 1.816zM243.728 30v-4.448c0-.63.179-1.157.536-1.584.357-.427.936-.677 1.736-.752l.848-.08-.112-1.12-.464.032c-1.28.107-2.139.613-2.576 1.52v-1.36h-1.264V30h1.296zm8.16 0l2.208-6.032L256.288 30h1.248l2.896-7.792h-1.296l-2.224 6.256-2.224-6.256h-1.12l-2.256 6.256-2.208-6.256h-1.344L250.656 30h1.232zm13.504.112c.555 0 1.099-.093 1.632-.28.533-.187.97-.44 1.312-.76l-.432-.944c-.757.619-1.59.928-2.496.928-.821 0-1.456-.232-1.904-.696-.448-.464-.693-1.15-.736-2.056h5.696v-.48c0-1.184-.293-2.115-.88-2.792-.587-.677-1.397-1.016-2.432-1.016-.715 0-1.352.17-1.912.512-.56.341-.995.819-1.304 1.432-.31.613-.464 1.32-.464 2.12 0 1.259.35 2.245 1.048 2.96.699.715 1.656 1.072 2.872 1.072zm1.936-4.64H262.8c.075-.779.317-1.381.728-1.808.41-.427.957-.64 1.64-.64.672 0 1.195.21 1.568.632.373.421.57 1.027.592 1.816zM271.664 30v-4.464c0-.747.213-1.339.64-1.776.427-.437.997-.656 1.712-.656.619 0 1.07.165 1.352.496.283.33.424.859.424 1.584V30h1.296v-4.896c0-2.059-.933-3.088-2.8-3.088-.587 0-1.107.123-1.56.368a2.609 2.609 0 00-1.064 1.072V18.72h-1.296V30h1.296zm9.088 0v-4.448c0-.63.179-1.157.536-1.584.357-.427.936-.677 1.736-.752l.848-.08-.112-1.12-.464.032c-1.28.107-2.139.613-2.576 1.52v-1.36h-1.264V30h1.296zM132.704 52v-4.624h3.152c1.173 0 2.09-.293 2.752-.88.661-.587.992-1.408.992-2.464s-.328-1.872-.984-2.448c-.656-.576-1.576-.864-2.76-.864h-4.464V52h1.312zm3.024-5.712h-3.024v-4.48h3.024c1.717 0 2.576.741 2.576 2.224 0 1.504-.859 2.256-2.576 2.256zm8.096 5.824c.544 0 1.024-.125 1.44-.376.416-.25.725-.605.928-1.064V52h1.264v-4.912c0-1.035-.243-1.805-.728-2.312-.485-.507-1.224-.76-2.216-.76-.533 0-1.085.088-1.656.264a5.11 5.11 0 00-1.464.696l.432.944c.885-.555 1.776-.832 2.672-.832.597 0 1.03.147 1.296.44.267.293.4.765.4 1.416v.528h-.352c-1.216 0-2.165.072-2.848.216-.683.144-1.173.379-1.472.704-.299.325-.448.781-.448 1.368 0 .437.123.837.368 1.2s.579.645 1 .848a3.15 3.15 0 001.384.304zm.176-1.024c-.459 0-.84-.136-1.144-.408a1.325 1.325 0 01-.456-1.032c0-.363.104-.637.312-.824.208-.187.557-.32 1.048-.4.49-.08 1.205-.12 2.144-.12h.288v.464c0 .683-.205 1.24-.616 1.672-.41.432-.936.648-1.576.648zm8.464 1.024c.95 0 1.699-.203 2.248-.608.55-.405.824-.95.824-1.632 0-.555-.176-1.005-.528-1.352-.352-.347-.89-.605-1.616-.776l-1.328-.32c-.416-.096-.717-.237-.904-.424-.187-.187-.28-.435-.28-.744 0-.373.152-.664.456-.872.304-.208.728-.312 1.272-.312.853 0 1.637.304 2.352.912l.432-.944a3.277 3.277 0 00-1.232-.76 4.562 4.562 0 00-1.552-.264c-.907 0-1.632.213-2.176.64-.544.427-.816.987-.816 1.68 0 .533.176.981.528 1.344.352.363.859.619 1.52.768l1.312.304c.47.107.805.25 1.008.432.203.181.304.427.304.736 0 .373-.152.659-.456.856-.304.197-.744.296-1.32.296a4.617 4.617 0 01-1.464-.216 4.175 4.175 0 01-1.272-.712l-.432.96c.768.672 1.808 1.008 3.12 1.008zm7.68 0c.95 0 1.699-.203 2.248-.608.55-.405.824-.95.824-1.632 0-.555-.176-1.005-.528-1.352-.352-.347-.89-.605-1.616-.776l-1.328-.32c-.416-.096-.717-.237-.904-.424-.187-.187-.28-.435-.28-.744 0-.373.152-.664.456-.872.304-.208.728-.312 1.272-.312.853 0 1.637.304 2.352.912l.432-.944a3.277 3.277 0 00-1.232-.76 4.562 4.562 0 00-1.552-.264c-.907 0-1.632.213-2.176.64-.544.427-.816.987-.816 1.68 0 .533.176.981.528 1.344.352.363.859.619 1.52.768l1.312.304c.47.107.805.25 1.008.432.203.181.304.427.304.736 0 .373-.152.659-.456.856-.304.197-.744.296-1.32.296a4.617 4.617 0 01-1.464-.216 4.175 4.175 0 01-1.272-.712l-.432.96c.768.672 1.808 1.008 3.12 1.008zm7.52 0c.544 0 1.024-.125 1.44-.376.416-.25.725-.605.928-1.064V52h1.264v-4.912c0-1.035-.243-1.805-.728-2.312-.485-.507-1.224-.76-2.216-.76-.533 0-1.085.088-1.656.264a5.11 5.11 0 00-1.464.696l.432.944c.885-.555 1.776-.832 2.672-.832.597 0 1.03.147 1.296.44.267.293.4.765.4 1.416v.528h-.352c-1.216 0-2.165.072-2.848.216-.683.144-1.173.379-1.472.704-.299.325-.448.781-.448 1.368 0 .437.123.837.368 1.2s.579.645 1 .848a3.15 3.15 0 001.384.304zm.176-1.024c-.459 0-.84-.136-1.144-.408a1.325 1.325 0 01-.456-1.032c0-.363.104-.637.312-.824.208-.187.557-.32 1.048-.4.49-.08 1.205-.12 2.144-.12h.288v.464c0 .683-.205 1.24-.616 1.672-.41.432-.936.648-1.576.648zm8.592 1.024c.555 0 1.053-.123 1.496-.368a2.536 2.536 0 001.032-1.072V52h1.264v-7.792h-1.296v4.4c0 .725-.208 1.31-.624 1.752-.416.443-.965.664-1.648.664-.597 0-1.035-.163-1.312-.488-.277-.325-.416-.835-.416-1.528v-4.8h-1.296v4.832c0 1.013.235 1.779.704 2.296.47.517 1.168.776 2.096.776z"/><g fill="#FFF" fill-rule="nonzero"><path d="M68.54 6.773c-.87.977-1.834 2.05-2.136 2.382-.694.756-1.543 1.713-2.514 2.821a138.52 138.52 0 01-1.231 1.385c-1.277 1.396-1.624 1.819-1.579 1.904.026.05.242.348.478.665 1.423 1.9 2.644 4.468 3.308 6.956.372 1.41.568 2.574.693 4.125.141 1.809-.005 4.196-.367 6.02a21.751 21.751 0 01-3.85 8.673l-.342.464.201.518a36.912 36.912 0 0011.25 15.217c4.132 3.3 9.406 5.883 14.251 6.986l.493.111.689-.136c5.851-1.138 11.778-4.01 16.272-7.873 2.694-2.322 4.624-4.493 6.74-7.59 1.041-1.527 2.554-4.342 3.193-5.929.206-.514.211-.539.13-.655-.05-.065-.296-.403-.552-.755-1.297-1.788-2.388-4.05-3.077-6.387-1.523-5.178-1.056-10.895 1.287-15.756.704-1.46 1.523-2.82 2.287-3.802.151-.192.267-.368.262-.393-.02-.05-1.232-1.42-1.95-2.212a51.845 51.845 0 01-.93-1.037c-.222-.247-1.046-1.179-1.836-2.065a209.93 209.93 0 01-2.538-2.892 84.841 84.841 0 00-1.408-1.601l-.301-.313-1.03.52c-3.193 1.601-6.4 2.362-9.98 2.362-2.005 0-3.639-.212-5.614-.72l-.794-.207-.714.176c-1.976.494-3.323.655-5.47.655-1.588.005-1.734-.005-3.242-.227-2.72-.393-5.62-1.435-7.952-2.85A13.346 13.346 0 0070.144 5c-.01 0-.734.8-1.604 1.773zm2.62.66c2.749 1.385 5.534 2.196 8.54 2.478.689.065 1.222.08 2.463.06 2.202-.035 3.57-.206 4.675-.594.794-.277.754-.272 1.247-.151.241.055.734.171 1.09.257.745.181 1.795.363 2.79.483.915.111 3.343.152 4.309.076 2.965-.242 5.625-.952 8.284-2.216.357-.172.673-.302.704-.287.035.01.462.488.95 1.057 1 1.164 3.297 3.738 5.61 6.286.402.444.734.827.744.852.01.025-.196.367-.458.76-1.01 1.532-1.664 2.826-2.367 4.68-.679 1.803-1.126 3.727-1.368 5.888-.12 1.088-.12 3.652 0 4.71.332 2.936 1.02 5.389 2.197 7.827a18.835 18.835 0 001.392 2.473l.478.73-.12.353c-.066.191-.337.79-.604 1.335A34.732 34.732 0 0199.23 58.437a34.337 34.337 0 01-11.104 4.614l-1.01.226-.453-.095c-1.513-.323-3.282-.907-5.127-1.703-7.018-3.027-12.975-8.396-16.78-15.13-.643-1.134-1.609-3.144-1.95-4.056l-.1-.261.421-.645C64.56 39.19 65.51 37 66.153 34.4c.457-1.844.668-3.491.703-5.45.056-3.41-.618-6.715-2.015-9.898-.553-1.254-1.539-3.002-1.986-3.516-.08-.09-.146-.196-.146-.236 0-.036.211-.308.468-.595.251-.292 1.206-1.375 2.121-2.407.91-1.038 1.805-2.045 1.99-2.237.182-.196.8-.886 1.378-1.536.93-1.053 1.438-1.612 1.463-1.612.005 0 .467.232 1.03.519z"/><path d="M69.083 9.543a470.94 470.94 0 00-3.343 3.793l-1.342 1.536c-.377.424-.432.52-.332.58.09.055.845 1.365 1.227 2.135 1.392 2.78 2.302 5.964 2.549 8.92.08.953.08 3.32 0 4.181-.357 3.899-1.488 7.425-3.389 10.568l-.402.675.166.408c.221.554 1.136 2.443 1.518 3.133 2.293 4.155 5.555 7.938 9.215 10.688 2.181 1.642 4.725 3.138 7.113 4.19 1.14.505 3.317 1.31 4.433 1.648l.407.12.634-.13c1.935-.398 4.328-1.154 6.238-1.97 4.881-2.085 9.094-5.233 12.517-9.358 1.639-1.975 3.142-4.327 4.389-6.86l.447-.917-.276-.423c-.956-1.456-1.85-3.335-2.469-5.183a23.723 23.723 0 01-1.256-7.797c0-1.295.045-1.98.226-3.325.437-3.31 1.679-6.76 3.428-9.55.211-.337.397-.65.417-.695.02-.055-.24-.378-.87-1.068l-1.367-1.526-.955-1.063c-.87-.957-1.588-1.773-2.342-2.644-.407-.474-.76-.862-.784-.872-.02-.01-.252.076-.503.192-2.413 1.088-5.007 1.758-7.837 2.025-.865.08-3.242.08-4.097-.005a27.825 27.825 0 01-3.941-.66l-.377-.096-.508.146c-1.055.297-2.252.499-3.745.635-1.156.1-3.614.075-4.675-.05-3.162-.388-5.766-1.154-8.405-2.479-.24-.12-.462-.221-.487-.221-.025 0-.573.594-1.222 1.32z"/></g><g stroke="#1B1A1C" stroke-width=".1"><path fill="#1B1A1C" d="M83.035 18.912c.16.264.327.501.552.505l.064.826c-.777.071-1.581.006-2.297.381-.616.36-.683.72-.574 1.08 1.042.519 1.264-.801 3.126-.571l4.04.812c-.12.202-.149.454-.566.4l-.47-.77-.388.638c-.375-.14-.255-.555-.364-.842l-.628.814-.213-.946-.783.78-.125-.752c-.431.32-.757.28-.942 1.03-.183.896.49-.015.475 1.461.304-.03.594-.156.832-.645.367.16.81.087 1.24.059.565.57 1.356.346 2.04.502-.398 1.104-2.918.329-2.964 1.295-1.574-.492-2.39.4-3.13 1.303.27.162.541.106.812.078l-.588.945c-2.582-1.118-3.693-2.937-4.786-4.765.002-.75-.624-1.77.875-1.765.253-.058.675-.122.497-.917.764-1.108.447-1.726-.238-2.178.23.58-.198 1.232-.361 1.31-.628-.79-.856.566-1.477.798-.386-.8.318-1.055-.49-1.582.304-.731-.37-1.203-1.149-.94-.097.033-.087-.129-.183-.18-.522-.278-1.486.031-1.947 1.082.15.164.57-.566 1.139-.222-.08.442-.204.916.228.975-.058.451.247.6.58.728l-.348.532h-.821c-.438-1.007-1.068-.364-1.446.28-.977.29-.895 1.124-.863 1.854.246-.281-.016-.663.819-.827-.054.976.435.72.822.693.379.398.758.098 1.137.137.78.717.411 1.228-.453 1.436.317.559.732.33 1.109.417.298.5-.43.352-.794.433.182.397.413.944 1.366.789-.448.574-.569 1.37-.224 1.945.248-.322.496-.795.744-.815-.194.678-.647 1.31-.163 2.112 0 .218.18.346.445.433-.015.755.849 1.588.43 2.494.424-.072.749-.373.973-.907.427.462 1.3.503.622 2.005.73.064.78-.55 1.153-.84.263.483.622.4.946.525l-3.247 3.093c-.855.627-1.3.314-1.67.249-.366-.327-.692-.58-1.183-.598.04-.571-.705-.551-1.038-.418-1.363-.262-1.46.736-1.819 1.473.357-.227.671-.715 1.088-.59-.027.551.171.88.871.708l.242.637c-.65.247-1.344-.435-1.936.234-1.123.414-1.073 1.382-.914 2.103.241-.292.358-1.06.834-.94-.2 1.994 1.266-.04 1.917-.102.002-.027.74-.096.545-.015-.158.067-.652.777-.786 1.062-.103.22-.6.419-.61.742-.023.741-.69 1.688.872 1.939.046-.067-.51-.842-.01-1.105 1.335.206 1.053-.432 1.063-.916.394-.14.773-.391 1.186-.413.28-.015.695-.075.83-.38.528-1.065.54.442.773.84.212-.455.583-.647.617-1.397l.418.053.162-.365.654.058c-.155-.256-.254-.502-.016-.693.508.567 1.069.548 1.642.396-.29-.296-.882-.501-.566-.978.561.567 1.122.53 1.683.449-.36-.352-.839-.682-.5-1.16.612-.283-.143.577 1.649.461-.186-.472-.865-.868-.278-1.458.269.276.134 1.134 1.745.823-.826-.307-1.062-1.055-.295-1.551.226.344.09 1.123 1.763.661-.576-.52-.678-1.066-.128-1.652.574 1.026 1.66.813 2.68.763 1.9 1.313 3.305.842 4.658 2.16-2.091 1.119-3.74.259-5.596.32-1.228.259-.547.854-2.23.964-.31.087-.233.799-.607.794-2.68-.036-1.523 1.7-3.307 1.797 1.567 1.055 1.77-1.121 3.261-.5-.546.438.024.907-1.602 1.072.532.653 1.344.59 1.942-.007 1.095 3.173-1.876 2.298-3.601 3.82-.345-.167-.71-.228-.993-.703.564-1.204-.313-.97-.858-1.193-1.138-.83-1.785-.075-2.208.48.46.056.92-.251 1.379.399-.619-.041-1.586 1.021 0 1.083-.32.621.703.31.893.95-.305-.037-.958.028-1.263-.098-.652-.268-.956-.702-1.608.098-1.576.245-.784 1.433-1.148 2.16.377-.344.344-1.037 1.148-1.016-.113.873.232.635.57.416.452.131.902.313 1.353-.194l.672-.032c.264.219-.578.674-1.191 1.08-.03.661-1.482 1.427.106 2.528-.102-.778-.15-1.511.723-1.511.803.538.812.049.988-.224.748.16.828-.41.931-.956.158-.39.54-.732 1.087-.345.173.611.294.937.73.828.393.496.905.456 1.429.368-.405-.472-.778-.877-.12-1.717.116.68.703.927 1.612.881-.189-.372-.676-.744-.062-1.116.69.889 1.318.656 1.944.381-.391-.304-1.212-.484-.348-1.18.152-.102.95.79 1.797.34.125-.066-1.074-.764-.392-1.271.041-.03.164-.132.208-.05.317.595 1.534.249 1.314.11a.67.67 0 01-.27-.866c-.052.056 1.572.431 1.874-1.06-.82.359-1.318-.124-1.18-.59.064-.213.346-.377.34-.93.097-.555-1.375-1.394-.067-1.566.55-.012 1.48.252 2.438-1.151.65.16-.053.432-.273.966-.051.466.16.73.432.993-1.606.906.771 2-.708 3.661.502-.078.98-.188 1.286-.527.454.356.775-.02 1.1-.37.622.393.69-.044.95-.19l.698.562c-.112.214-.239.417-.094.824l-1.597 3.658c-.375.155-.75.315-1.125.02.027-.695-.564-.644-.944-.624-.397-.43-.794-.158-1.19-.176-1.078-.658-1.69-.119-1.973 1.268.366-.27 1.08-1.163 1.097-.152-.294.862.239.9 1.065.645 1.375.531-.207.754-.274.723-.306-.131-.947-.083-1.133.656-.701.333-1.464 1.412-.16 2.536-.05-.013.123-1.14.345-1.264.667 1.13 1.289.152 1.425-.25.85.371.547-1.063 1.368-.24-.436 1.226-.512 2.292.957 2.668-.02-.358-.412-.93-.067-1.167.442.01.948.179 1.009-.76.578-.031.238-.951.625-1.356.416.047.656-.075 1.12-.174.46-.098.72-1.036 1.651-.418.141-.309.164-.63-.287-1.005.193-.367.771-.1.929.556.692-.722.74-1.234-.611-1.804.793-.712 1.668-.98 2.376-2.163.279-.193.55-.546.617-.74.643-.263.862-1.02 1.251-1.58-.141.114-1.65 1.238-1.617-.747.501-.187.918-.437 1.043-.904-1.508.203-1.56-1.018-2.447-1.217.172-.544.101-.968-.105-1.324-.433 1.012-2.678 1.466-2.07-1.903.474.246 1.125.381 1.315-.033.57.263 1.146.554 1.579.13.821.125 1.384.09 1.217-.394 1.27.02 1.135-.361 1.126-.706.568-.199.966-.447.55-.926.226-.217.846-.992.23-1.136.099-.625 1.302-1.499.289-1.556.02-.523.104-1.07.73-1.825-.315-.127-.644-.188-1.006-.08.595-1.08-.63-2.236.852-3.136-.418-.078-.836-.074-1.253.083.067-.554-.043-1.154-.253-1.708.701-.61.846-2.28-.481-3.39.088-.678.44-2.127-.594-3.155.117-.636-.115-1.683-.354-1.847-.092-.063-.118-.197-.133-.309-.107-.788-.615-1.202-1.174-1.775-1.632-1.194-2.909.028-3.398.466-.829 1.639.724 2.056 1.743 1.725-1.05-.814-.718-2.074.755-1.352 1.257 1.62-1.337 2.623-1.588 4.765-.408 2.232.342 3.853 1.33 5.408.68 1.288 2.074 2.83 2.626 4.923.157.43-.294 3.798-1.201 3.576-.415.143-1.796-.992-3.59-1.055-.922-2.412-3.01-2.846-4.52-4.257-.297-.29-.383-1.162-.476-1.226a4.971 4.971 0 01-.232-.335c.084-.344.174-.934.166-1.23.238-.053.442.311.661.497.175-.852.339-1.684-.554-2.54.017-.118-.216-.285.066-.272.43.27.92.65 1.05 1.317.34-.547.423-1.093.51-1.64l.21.09c-.005-.532.017-1.11-.202-1.287.55-.415 1.13-.817 1.321-1.375-.475.174-1.02.543-1.324.237.606-.346 1.258-.678 1.071-1.275-.501.347-1.291.628-1.654-.149.393-.434 1.334-.133.939-1.616-.136.285-.485.874-1.025.635-.208-.123-.084-.754-.888-1.373L92.34 15.8c-1.038.181-1.034 1.196-2.016 1.583-.693-.021-.924-.096-1.458-.138-.892-.217-.938.216-1.47.42-.604.082-1.77-.188-2.86-.411-.352-.072-.697-.338-1.013-.189-.476.262-.45.967-.488 1.846z"/><path fill="#FFF" d="M83.993 20.274l.289-.822.34.026c-.018.303-.067.576.028.85a1.67 1.67 0 00-.657-.054zm.876.15c.082-.357.239-.371.377-.534l.28.101c-.111.19-.08.347-.04.555-.074-.028-.316-.062-.617-.121zm.875.353c.109-.302.34-.397.41-.45l.13.01c-.112.194.064.456.117.647-.076-.028-.407-.105-.657-.207zm.876.19c.063-.148.15-.421.308-.42.182.066.423.318.787.628-.468.107-.775-.12-1.095-.208zm15.24-.858c-.49.634-1.166 1.042-1.716 1.86-.29.58-.196.62.245.48.557-.406 1.07-.845 1.454-1.378.204-.268.059-.695.016-.962zm.603 3.506c.806-.065.621.86.347 1.313-.223.42-.79.758-1.188 1.262-.14.164-.315.639-.33-.283.045-1.46.948-1.46 1.171-2.292z"/><path fill="#D8201F" d="M71.51 21.641c.032-.425.25-.755.887-.876.371.173.174.663-.029.632-.286-.09-.571.122-.857.244z"/><path fill="#D8201F" d="M73.34 17.62c.327-.308.699-.515 1.298-.205.806.23 1.378-.185 1.054.735l-.049.143c1.007-.086.198 1.114.691 1.534.267.183.538.034.708-.25.15-.25.225-.015.225-.023.005-.134-.014-.251.031-.31.07-.094.14-.181.208-.251.273-.285.486.107.385.368-.026.067-.156.22-.171.3.553-.382.928-.957.936-1.57.128.355.366.528-.125 1.692-.02.359-.143.507-.3.59-.145.233-.735.286-1.2.39-.412.98.046 1.34.022 2.06.758 2.322 3.35 4.201 4.798 4.834-.213.272-.401.277-.644.372.138.065.405.332.815.264-.14.91-.347 1.28-.731 1.777l-.026.687c-.384.239-.628.723-1.032 1.232-.392.223-.73-.362-1.094-.571-.063.644-.365.607-.608.734.21-.904-.406-1.424.243-2.408-.302.51-.625.586-.71 1.266-.567-.86.099-1.06.02-1.47-.03.071-.335.145-.58 1.163-.713-.857.121-1.503.135-1.98-.368.344-.858.455-.707 1.782-1.319-1.635-.012-1.719.017-2.557-.283.356-.784.492-.81 1.107-.52-1.006.24-1.225.444-1.763-.243-.06-.607.264-.85.853-.266-1.004.496-1.24.572-1.89-.419-.088-.838-.024-1.257.53-.208-.94.672-1.136.583-1.653-.037-.211.123-.317.102-.246-.16.545-1.318.513-1.368-.12.5-.06.896-.405 1.246-1.595-.456.568-.93 1.272-1.694.662.603-.173 1.174-.787.437-1.708-.455-.402-.788-.031-1.005-.051-.182-.061-.225-.109-.113-.258.11-.15.215-.331.287-.56.032-.237-.016-.26-.155-.067-.17.272-.238.687-.601.762-.118.013-.584.091-.278-.453.435-.458.798-.898-.092-1.037.382-.66.676-.962.993-.078.673-.088 1.214.35 1.613.951.082-.82-.83-.949.04-1.677l.027-.182c-.142-.183-1.079-.204-.553-.753.29-.095.51-.28.851-.286-.276-.357-.564-.016-1.033.131-.26-.049-.304-.123-.306-.334.531-.004.65-.172.812-.328-.363.188-.52.116-.608-.04.035-.417-.594-.165-.892-.245z"/><path fill="#1B1A1C" d="M77.213 25.249c0 .028-.045.104.067.115.035.001.147-.071.143-.219-.066.057-.203.053-.21.104zm.242.66c.003-.003-.121.181.104.083-.013-.297.44-.092.52-.276.012-.094-.103-.176-.12-.108-.048.193-.36-.038-.504.302zm.2.443c-.045.132.039.122.12.075.246-.37.67-.169.947-.538.058-.107-.066-.097-.1-.066-.241.285-.649.079-.967.529zm-.216.905c-.017.046-.053.1.11.069.41-.526 1.082-.468 1.595-.803.043-.045.055-.077-.05-.06-.546.366-1.195.151-1.655.794zm.218.636c-.052.115.046.118.095.067.403-.757 1.158-.522 1.827-.974.106-.11-.064-.094-.085-.077-.592.404-1.42.278-1.837.984zm.236.388c-.109.175.094.166.14.12.354-.725 1.516-.08 2.215-.714.03-.14.05-.176-.083-.08-.772.576-1.893.042-2.272.674zm.715.202c-.069.029-.162.005 0 .129 1.038.141 1.693-.143 2.295-.534.064-.115-.01-.092-.09-.062-.614.365-1.281.637-2.205.467zm.163.902c-.036.046-.093.175.135.13.134-.401 1.467.2 2.197-.748.13-.188-.075-.096-.097-.094-.82.927-1.415.302-2.235.712zm.636.691c-.039.164.015.092.07.075.331-.529 1.408-.082 2.106-1.164.005-.167-.021-.125-.09-.075-.567 1.045-1.518.607-2.086 1.164zm.003.82c-.04.15.001.173.058.157.64-.628 1.674-.246 2.072-1.183.005-.154.086-.142.014-.096-.492.834-1.542.604-2.144 1.122z"/><path fill="#D7201F" d="M83.724 17.208c1.057.684 2.361.485 3.51.712l.75-.48 2.13.225c.86-.353 1.207-.877 1.57-1.395.545 1.038-.03 1.704-.47 2.577 1.953-.53.647 2.511 2.866 1.158-.35.24.091.666-1.283.79.676 1.195 1.24.868 1.711.799-.055.246-.152.708-1.497.585.355.344.784.607 1.426.64-.395.21-.42.642-1.533.425.481.277.96.475 1.082 1.454-.447-.178-.817-.56-1.341-.532.372.237 1.177.318.768 1.626-.404-.48-.785-1.008-1.365-1.11-.065 1.225.798 1.7.533 2.97-.381-.56-.766-1.072-1.174-1.295.307.572.55 1.143.342 2.022-.665-.314-.468-.363-.692-.538.18.582.824.766.35 1.905-.351-.724-1.155-.82-1.282-1.437-.034-.169.08-.308.17-.577-.888.01-.02 1.532-.597 1.946-.13-.56-.845-.467-.798-1.924l-.074.017c-.156.634-.102 1.567-.638 1.964.02-.747-.738-.535-.262-2.017-.413.524-.374 1.224-1.13 1.512.05-.638-.154-1.207.278-1.993-1.107.61.212 2.132-1.103 2.533.609-.183 1.028-.187 1.599-1.003.163.606.525.634.238 1.511.933-.303.923-1.154 1.086-1.537.177.718.649.601.739 1.31.447-.27.42-.758.515-1.156.966.591 1.028.945.915 1.554.356-.36.744-.629.812-1.35l.494 1.226c1.413 1.023 3.64 2.384 4.546 4.313 2.025-.03 2.707 1.389 3.92 1.103.836-.16 1.764-1.728 1.429-3.659-.333-1.812-2.244-4.428-2.887-5.473-1.56-3.102-2.152-4.401.541-7.839.724-2.254-.774-2.356-.795-2.363-.205-.067-1.538-.208-.99 1.554-1.764.042-.746-1.593-.334-1.855.54-.343 1.972-.83 2.978.503 1.017 1.704-.222 2.681-.653 3.76-.482 1.13-.836 2.77-.257 3.906.3-2.562 1.388-1.293 2.599-3.275.263 2.09-2.18 2.044-2.396 4.108.062.085.08.301.214.167-.18-1.07 1.307-1.727 2.105-2.444-.235 1.238-1.49 1.577-1.545 3.167.079.512.31.912.729 1.17-.055-1.484 1.365-.944 1.715-3.151.889 2.423-1.517 2.053-1.506 4.445l.162.18c.174-.99.574-1.558 1.087-1.914.266 2.248-1.01 1.722-.511 3.613.569.062-.445-1.317 1.24-1.91-1.134 1.688.837 1.71-.855 3.332-.002.039-.13.11.02.112.466-.359.828-.308 1.214-.346-.756.788-.355 1.65-.999 2.146.247.021.503-.035.792-.392-.053.435-.198 1.264-.92 1.514-.23.372.338.318.71.178-.182.497-.487.75-.924.74.004.286.398.312.63.448-.29.14-.269.463-1.223.214.065.276.267.526.463.776-.364-.047-.922-.027-1.26-.332-.148.28.072.519.14.775-.9-.043-1.285-.343-1.603-.676.029.313.353.543.554.745-.972.235-1.543-.422-1.873-.898-.077.394.198.538.298.806-.668.124-1.396-.26-1.742-1.232.358.639.139 1.45.016 2.26-.318 2.436 1.956 2.004 2.672 1.73-.194.516-.559.863-.946 1.106.452.168.615-.415 1.077-.22.742.405 1.068 1.381 1.994 1.194-.88.696-1.34.167-1.895-.175 1.467 1.407.483 2.23 2.148 2.296-.242.462-.775.674-1.59.648 1.23.47.01.755-.787 1.11.24.275.547.584-.848.7-.007-.008-.191.16.043.213.638.143.155.5-.585.759-1.452 1.306.91.002.856 1.493-.373-.325-.795-.374-1.291-.008-.458.227.36.19.336.684-.368-.074-1.002.157-1.452.527-.266.218-.965-.01-1.077.172-.388.224-.453.738-.436 1.324-.199.347-.654-.072-.802-.19-.075.137-.038.292.374.51-.027.164.088.351-.16.479-.57.052-.555-.727-1.164-.55-.84-.432.994-1.213.939-1.944l-.791.79c-.03.272-.66-.054-1.016-.106-.055.425-.328.524-.586.646-.261-.01-.137-.403-.163-.646-.445.558-.029 1.044-.642 1.437-.257-.033-.913-.277-.16-.759.218-.183.05-.537-.141-.967-.134-.14-.132-.263.153-.35 1.165-.029 1.347-.336 2.876-.533-.67-.142-1.403.112-1.98-.639l.136-.372c-.348.045-.44.491-1.044.426-.421.092-.3-.116-.27-.272.678.001.793-.558.965-1.06.535-.297.545.377.749.693.35-1.272 1.167.806 1.81.423 2.412-1.54 1.371-4.285 2.699-4.147-.308-.192-.94-.655.225-1.253-.463-.067-1.822.53-1.098-1.625-.901.423-.15 1.572-1.322 1.546.432-.712-.024-.938.574-1.812-1.09.244-.077 1.675-1.452 2.132.37-.774-.105-1.61.548-2.433-1.235.123-.124 1.599-1.396 2.646.593-.7-.987-2.614.481-3.197-.11-.597-1.236-.762-.045-1.915-1.024-.789.24-1.637-.666-3.073-1.385-1.365-3.349-1.153-4.476-1.934-.934-.25-2.213.225-2.728-.905.541-.495 1.362-.712 1.48-1.628-.622.853-1.462 1.275-2.229 1.841-.435.762.035 1.149.169 1.675-1.285.008-.91-.778-.97-1.355-.483.468-1.24 1.083-.645 2.157-.91-.109-.71-.997-.64-1.305-.675.342-1.281.728-.466 1.992-.698-.012-1.092-.326-.952-1.172-.628.386-1.06.865-.289 1.921-.526-.048-1.037-.137-1.067-.99-.609.43-.401 1.112-.297 1.488-.47-.032-.779-.45-.93-.872l-.47.352c-.131.28-.027.421.01.601-.268.003-.509-.193-.763-.21.115.163.296.26.244.59-.34.064-.521-.19-.765-.32.139.41.319.83.004 1.135-.188-.281-.077-.662-.57-.842-.838-.277-.646 1.504-1.604.692.005.869-.677.476-1.094.57.001.233.13 1.02-.351.87-.157-.357-1.138-.57-.866-.742.153-.256.348-.263.535-.313.099-.847.409-.546.626-.832.208-.273.37-.542.384-.805-1.512.053-1.38.734-1.818.563l-.01-.615c-.15.417-.347.947-.773 1.222-.18-.058-.262-.202-.19-.475.184-.354 1.017-.333.199-1.267-.037-.07.119-.163.423-.035.818.225 1.37-.329 2.118-.177.074-.023.176-.14-.001-.297-.49-.256-1.208-.405-.789-.726.331-.08.387-.63.506-.661.255-.067.378.241.669.454.481.356.95.742 1.741.356 1.894-1.242 2.205-2.462 3.915-3.157.125-1.262 1.002-1.621 1.711-2.23.306-.405.693-.81.788-1.214-.48.3-.959 1.022-1.438.769.964-1.034.19-1.679 1.79-2.438-.638-.11-.758.41-1.518.221.89-.353.519-1.615 1.898-1.807.047-.007 0-.217.022-.204-.505-.212-.753.157-1.36.12.645-.466.442-1.34 2.777-.992.182-.035-.027-.435.396-.442 2.085-.037 3.802-1.015 3.953-2.228-.444.42-.695 1.059-1.52 1.045-.474-.484-1.438-.039-1.846-.63-.059-.085-.188.006-.246.033-.26.12-.742.154-1.212.02-.152.408-.382.414-.535.605.039-.285-.095-.488-.239-.636-.258-.265-.307-.513.027-.552.617-.008 1.643-.066 2.415.083.933.18 1.586.347 1.942-.014.47-.437.15-1.074-.076-1.248-.575-.516-1.128-1.11-1.725-1.352-1.165-.455-1.98-.67-2.724-.627-.65-.058-.917-.984-.524-1.019.31.033.507.173.407-.077-.298-.669-.424-1.163.243-.86z"/><path fill="#D8201F" d="M82.316 40.52c1.303-2.037 1.083-1.586 2.132-1.65 1.578-.366-.026-1.042 1.979-.857.653-.347.406-.79 1.368-.865 1.909-.058 3.436.653 5.292-.178.216.648.023 1.296.034 1.944-.897 1.623-1.8.658-2.785 1.283-1.107.562.39 1.232.209 2.154-.735 1.4.276 1.296.808 1.387-.661.664-1.19.571-1.642.042-.57.16-.211.906-.268 1.389-.344-.038-.639-.248-.877-.65-.022.6-.818.602-.434 1.58-.47.045-.713-.227-.92-.754-.96.973-.58 1.537-.464 1.838-.942.178-.871-.645-.94-.868-.53.329-1.142.621-.399 1.504-1.278-.187-1.054-.672-1.08-1.107-.793.454-.84 1.222-.901 1.743-1.155-.475-.461-.884-.24-1.31-.46-.104-.43.735-.862.975-.06-.3.104-.733-.192-.892-.471-.035-1.166-.198-1.553.568-.06.253-.047 1.41-.612.765-.165-.34-.403-.484-.75-.33.19.193.608.022.556.596-.034.302-.41.555-.454.302-.118-.667-.677-.564-.767-1.045.418-.23 1.166-.548 1.114-1.171-.455-.309-.791-.066-1.246.02-.117.049-.577.412-.646.113.254-.388.135-.53.09-.722a2.562 2.562 0 01-.383.753c-.327.12-.532.034-.493-.159.342-.172.465-.468.44-.848-.376-.702.073-.626.514-.414.232.112.405.333.577.345l1.426-.09c-.17-.203-.351-.733-.64-.79-.339-.066-.451-.085-.346-.393.47-.174.36-.512.504-.778-.177.422-.47.576-.804.636-.54-.044-.552-.36-.16-.541.561.035.907-.25 1.155-.68.934-.42.772.723.521.914.457.353.932.918 1.34.69.466-.305.736-.631 1.637-.888 1.353-.214 2.12-.763 2.387-1.383.306-.985-.472-1.555-.23-2.4-.65.054.165.628-1.187.773.163-.253.474-.318.474-.502.004-.84.826-.511.963-1.17-1.33.51-1.137-.027-1.686.05-.678.096-.73.994-1.559 1.072zm-8.969-5.712c-.28 0 .066.915-.584.956-.192-.018-.188.198-.096.249a.497.497 0 00.498.028c.476-.113.768-.833.754-.963-.167-.35-.447-.315-.572-.27z"/><path fill="#D8201F" d="M71.949 35.437c.268-.067.388-.266.773-.056.23.08.405-.44.28-.586-.283-.046-.919-.028-1.053.642zm-1.095 3.285c.034-1.071.456-1.106.785-1.314.226.019.442.337.211.647-.739-.046-.788.363-.996.667zm1.843 1.318c-.097.539-.245 1.363.34 1.528.046-.356-.16-.842.226-1.058-.204-.43-.362-.495-.566-.47zm5.383 2.991c.372.048.599.13.792.508.143-.077.426-.108.244-.522-.39-.207-.6-.154-1.036.014zm-2.409 4.23c.347-.555.72-.795 1.118-.707.125-.214.371-.44 0-.606-.578.047-1.007.378-1.118 1.314zm2.391 3.067c.117-.281.072-.936.894-.973-.057-.362-.391-.622-.625-.547-.272.259-.74.546-.269 1.52zM90.124 48.6c.255-.214.583-.36.863-.23.164.075.298.443.43.424.16-.108.412-.557.069-.785-.294-.072-.958-.337-1.362.591zm-.151 4.355c-.03-.55-.32-1.209.58-1.752.61 0 .495.689.242.688-.253.035-.548.296-.822 1.064zm3.912 1.314c-.199-.313-.611-.514-.432-1.391.257-.304.44-.07.613.246-.295.265-.182.662-.181 1.145z"/><path fill="#1B1A1C" d="M86.07 30.62l.282.013c.084 1.002.314 2.07-1.92 2.023-.327 1.813-1.79.43-2.848 1.905.38-1.406 2.942-.615 2.563-2.185 2.12.34 2.16-.622 1.924-1.757zm.112 2.607c1.716.653 2.274-.162 2.898-.856l.168.188c-.614.625-1.658 1.766-3.066.668zm10.483 3.078c-.175.599.202.802-.088 1.788-.114.388-.342.843-.862 1.286-.104-.01-.158.001-.078-.144 1.295-1.457.397-1.707.76-2.598.03-.146.077-.18.105-.303.016-.057.037-.11.056-.152.103-.17.18-.074.107.123zm.247 13.02c.002.094.012.175.127.093.553-1.558 1.291-1.063 1.608-2.187.449-.301.534-.54.507-.76.229-.231.67-.384.686-.981.46-.19.549-.681.566-.847.124-1.148-.99-1.084-.894-1.975-.048-.109-.054-.261-.253-.215-.185 1.16 1.7 1.84.427 2.899-.047.04-.343.219-.637.183l-.044.184c.168.043.339.075.546-.044-.02.345-.454.619-.918.605l-.067.147c.257.242.32.564-.29.644.223 1.044-1.148.841-1.364 2.254zm-9.628-30.581c1.005.166 1.169-.934 1.793-.507.566.797.039.872.043 1.302.23.098.446.216.785.172-.246.198-.603.196-.918.227-.759.539-1.544-.333-1.475-.771-.09-.131-.273-.193-.228-.423z"/><path fill="#FFF" d="M101.638 18.576c-.235 1.457-1.162 1.722-1.66 3.284.743-.876 1.229-.633 1.97-1.956.015-.413-.096-1.212-.31-1.328z"/><path fill="#D8201F" d="M88.591 18.392c.186.139.39.323.507.622.098-.102.218-.345.103-.506-.183-.185-.488-.169-.61-.116z"/><path fill="#FFF" d="M88.591 19.086c-.034.054-.19.285-.215.226-.052-.124-.259-.22-.39-.066-.18.227.107.461.28.555.04.091.018.2.005.308-.39-.08-1.012-.908-.681-1.138.37-.02.403-.465.736-.386.262.143.25.296.265.501z"/><path stroke-linecap="square" d="M91 19.67c1.158.295.529.725.048.649"/><path stroke-linejoin="round" d="M91.273 20.328c1.033.359 1.176.934-.054.87m.047.005c.63.327.52.812-.485.876m.22-.219c.173.194.555.886-.439.58M90.304 22.955l-.141.657"/><path stroke-linecap="round" stroke-linejoin="round" d="M90.55 22.736c.507.366.06.474-.207.428"/><path fill="#1B1A1C" d="M90.415 18.048c.174.048.394.04.424.264.106.059.216.081.347-.07.265-.444.3-.782.203-1.2-.257.615-1.33.67-.974 1.006zM88.503 33.38c-.18.03-.164.317-.017.305.488-.092.94-.516 1.377-.949.052-.027.082-.199-.071-.13-.244.272-.738.66-1.289.774zm1.03.29c-.134.023-.04.243.07.234.367-.067.625-.238.954-.556.02-.048-.02-.137-.135-.085-.184.199-.474.324-.888.408zm.685.242c-.126.018-.12.218-.016.21.373.007.708-.282 1.016-.539.01-.042-.062-.156-.13-.103-.147.168-.482.365-.87.432zm.86.42c-.166.113-.03.236.059.229.29-.055.452-.312.714-.57.03-.016.049-.119-.043-.077-.351.364-.539.286-.73.418zm.858.194c-.139.055-.006.262.085.254.304-.06.444-.261.717-.543.032-.018.01-.15-.085-.104-.153.176-.315.36-.717.393zm.638.35c-.045-.004-.102.147.125.12a.594.594 0 00.473-.353c.052-.103-.02-.088-.063-.064-.086.14-.224.264-.535.298zm.654.497c-.043-.003-.095.08.127.061.142-.015.175-.074.255-.158.05-.073-.02-.063-.061-.045-.085.1-.168.127-.321.142zm.219.22c-.043-.004-.095.08.127.06.142-.015.175-.074.255-.158.05-.073-.02-.063-.061-.045-.085.1-.168.127-.321.142z"/><path stroke-linecap="round" d="M86.84 41.13c-.573-1.268.196-1.714-.136-2.408m.692-.438c.357.803-.384 1.63-.01 2.408m-1.358-.875c-.174.543.02.956.373 1.313m2.32-3.284c-.158.971-.904 1.34-.77 2.09.253 1.43 2.374 1.417.59 3.603"/><path stroke-linecap="round" d="M89.27 43.32c.334-.437.571-1.24.295-1.641-.415-.603-1.064-1.09-.963-2.136.056-.58.686-.67 1.082-1.478"/><path stroke-linecap="round" d="M90.781 37.846c-.484.96-1.227.492-1.533 1.97m2.628-1.97s0 0 0 0c-.325.207-.4.663-.821.978-.727.544-.765.817-.907 1.164l-.024.048m2.847-2.628c-.547.086-.673.778-1.042 1.299-.359.507-.781.385-1.136 1.097l-.012.013m1.314-.438c.367-.724.9-.728 1.095-1.314"/><path fill="#1B1A1C" d="M82.704 46.408l-.025.193c.509.023.983-.071 1.082-.207.37.014.761-.08 1.132-.548.125-.025.149.088.141.242.269-.155.535-.326.66-.596.075-.026.097.083.146.067.238-.106.455-.043.693-.445.81-.123.895-.428.983-.618l.052.288c1.266-.792.548-1.463 1.023-2.4-.056-.19-.085-.153-.165-.159-.448.998.228 1.93-.78 2.248-.039-.368-.053-.636-.13-1.086l-.24.007c.096.683.154 1.27-.465 1.519-.1-.3-.134-.749-.181-.809l-.104.054c.003.704-.231 1.071-.704 1.259.088-.262.099-.327-.023-.687-.009.018-.108.035-.109.046-.029.447.038.787-.64.971.006-.145-.208-.32-.308-.416-.005.641-.415.862-1.192.888.047.253-.539.14-.846.189z"/><path fill="#1B1A1C" stroke-linecap="round" d="M96.036 39.817c.283-.388 1.012-.904.45-1.314m-.23 1.97c.192-.202.467-.247.435-.875m-.217 1.313c.193-.151.468-.185.436-.656m.002 1.094c.097-.151.234-.185.218-.657m.44.876c.096-.05.233-.062.217-.219M98.014 42.006l.206-.219"/><path d="M90.835 24.926c-.15.434.56 1.206-.172 1.752 0-.327-.286-.377-.32-.655m0 .217c-.018.438-.034.855-.219.876"/><path d="M91.277 24.27c.678.59.28 1.269.089 2.189-.281-.605-.525-.68-.585-1.024m1.027-2.48c.109.553.517.757.11 1.752-.158-.205-.234-.497-.48-.608"/><path d="M92.206 22.08c-.003.505.699.526.054 1.751-.104-.316-.365-.352-.384-.631"/><path fill="#D8201F" d="M81.757 20.573c-.913.332-1.323 1.338.099.89.721-.382 1.384-.767 2.828-.445 1.628.267 2.557.737 3.661.842.018-.138.09-.276-.114-.415-1.698-.317-2.397-.816-4.003-1.059-.824-.059-1.648-.154-2.471.187z"/><path fill="#FFF" d="M83.706 20.328c-.187-.26-.134-.575-.151-.835.151-.045.478-.09.657.079-.285.204-.418.525-.506.756zm1.02 0c-.031-.286-.138-.602-.027-.831.163-.06.49-.1.608.143-.223.194-.42.37-.58.688zm.838.218c-.004-.24-.12-.476.069-.643.205-.064.344.112.55.224-.299.034-.448.182-.619.42zm.986.22c-.159-.272-.104-.43-.149-.64.154-.024.31-.074.438.27-.096.058-.192.173-.289.37zm.07 1.472c.085-.243.17-.285.253-.378.036.148.094.373.185.422a.732.732 0 01-.438-.044zm-1.094-.06c.065-.179.066-.358.295-.537.024.223.01.469.142.626-.161.027-.332.085-.437-.089zm-.876.045c.138-.343.316-.452.49-.582.028.207.003.414.167.621-.208.012-.383.095-.657-.039zm-.876-.164c.088-.258.278-.533.535-.637-.05.203-.018.452.122.595-.3.116-.442.033-.657.042z"/></g></g></svg>