<svg xmlns="http://www.w3.org/2000/svg" width="48" height="48"><g fill="none" fill-rule="evenodd" transform="translate(1 1)"><circle cx="23" cy="23" r="23" fill="#FFF" fill-rule="nonzero" stroke="#D7201F" stroke-width="2"/><path fill="#1B1A1C" d="M20.295 12.27c.107.176.22.334.37.336l.043.551c-.52.048-1.058.004-1.537.254-.412.24-.457.48-.384.72.697.347.846-.534 2.092-.38l2.703.541c-.08.135-.1.303-.38.267l-.313-.513-.26.425c-.252-.093-.171-.37-.244-.561l-.42.542-.143-.63-.524.52-.083-.502c-.289.214-.507.187-.63.688-.123.597.328-.011.317.974.204-.02.398-.105.557-.43.245.106.542.058.83.039.377.38.907.231 1.364.335-.266.736-1.952.219-1.982.864-1.054-.328-1.599.267-2.095.869.181.108.363.07.544.052l-.394.63c-1.727-.746-2.47-1.959-3.201-3.178 0-.5-.418-1.18.585-1.178.169-.039.451-.081.332-.611.511-.74.3-1.152-.159-1.453.154.387-.132.822-.242.873-.42-.527-.572.378-.988.533-.258-.533.213-.704-.328-1.055.204-.488-.247-.803-.768-.627-.065.022-.058-.086-.122-.12-.35-.186-.995.02-1.303.721.1.11.381-.377.762-.148-.054.295-.137.611.153.65-.04.302.165.401.387.486l-.232.355h-.55c-.293-.672-.714-.243-.967.186-.654.195-.599.75-.577 1.238.165-.188-.011-.443.548-.552-.036.651.29.48.55.462.253.266.507.065.76.091.522.479.276.82-.303.959.212.372.49.22.742.278.2.334-.288.234-.531.289.122.265.277.63.914.525-.3.383-.38.915-.15 1.298.166-.215.332-.53.498-.544-.13.453-.433.874-.11 1.41 0 .145.121.23.298.288-.01.504.568 1.06.288 1.664.284-.048.5-.249.651-.605.286.308.87.335.416 1.337.488.043.521-.367.771-.56.177.322.417.267.633.35l-2.172 2.063c-.572.419-.87.21-1.117.166-.245-.218-.463-.387-.792-.398.027-.382-.471-.368-.694-.28-.912-.174-.977.491-1.217.983.24-.152.45-.477.728-.394-.018.368.114.587.583.473l.162.425c-.435.164-.9-.29-1.296.156-.751.276-.718.922-.611 1.402.161-.194.24-.706.558-.627-.134 1.33.847-.026 1.282-.068.002-.018.495-.064.365-.01-.106.045-.436.519-.526.71-.069.145-.4.278-.408.494-.015.494-.461 1.126.583 1.293.03-.045-.34-.562-.006-.737.892.137.704-.288.71-.611.264-.094.518-.26.794-.276.187-.01.465-.05.556-.252.353-.711.36.294.517.56.142-.304.39-.432.412-.932l.28.035.109-.244.437.04c-.104-.172-.17-.336-.011-.463.34.378.715.366 1.1.264-.195-.197-.591-.334-.38-.652.376.378.75.354 1.126.3-.24-.236-.561-.456-.335-.775.41-.188-.095.385 1.104.308-.124-.315-.58-.579-.186-.973.18.184.09.757 1.167.55-.553-.206-.71-.704-.197-1.035.15.229.06.749 1.18.44-.386-.346-.454-.71-.086-1.101.384.684 1.11.542 1.793.509 1.271.876 2.21.561 3.116 1.44-1.4.747-2.503.173-3.744.215-.822.172-.366.569-1.492.642-.207.058-.156.533-.406.53-1.793-.024-1.019 1.134-2.213 1.199 1.05.703 1.184-.749 2.182-.334-.365.292.017.605-1.072.715.357.436.9.394 1.3-.005.732 2.117-1.256 1.533-2.41 2.548-.23-.11-.475-.152-.664-.469.378-.803-.21-.647-.573-.795-.762-.554-1.195-.05-1.478.32.308.037.615-.168.923.266-.414-.028-1.061.681 0 .722-.214.415.47.207.597.634-.204-.025-.64.019-.845-.065-.436-.18-.64-.469-1.076.065-1.054.163-.524.956-.768 1.44.253-.228.23-.691.768-.677-.075.582.156.424.382.277.302.088.603.21.905-.13l.45-.02c.176.146-.387.45-.797.72-.02.441-.991.952.07 1.686-.068-.518-.1-1.007.484-1.008.537.36.543.033.661-.149.5.107.554-.274.623-.637.106-.26.36-.489.728-.23.115.407.196.625.487.552.263.33.606.304.957.245-.271-.315-.52-.585-.08-1.145.077.453.47.618 1.078.588-.126-.248-.452-.497-.042-.745.462.593.882.437 1.301.255-.262-.204-.81-.324-.233-.788.102-.068.635.527 1.202.227.084-.044-.718-.51-.262-.848.028-.02.11-.088.14-.033.211.397 1.026.166.878.073a.446.446 0 01-.18-.578c-.035.038 1.052.288 1.253-.707-.549.24-.882-.083-.789-.393.043-.142.231-.251.227-.62.065-.37-.92-.93-.045-1.045.368-.008.99.168 1.632-.768.435.107-.036.288-.183.644-.034.311.107.487.289.663-1.075.604.516 1.333-.474 2.442.336-.052.656-.125.86-.351.305.237.519-.015.737-.248.416.262.46-.029.635-.127l.467.375c-.075.143-.16.28-.063.55l-1.068 2.44c-.251.104-.502.21-.753.013.018-.463-.377-.429-.631-.416-.266-.286-.531-.105-.797-.117-.72-.439-1.13-.08-1.32.846.245-.18.723-.776.734-.101-.196.574.16.6.713.43.92.354-.139.503-.183.482-.205-.088-.634-.055-.758.437-.47.223-.98.943-.107 1.692-.034-.008.082-.76.23-.843.447.754.863.102.954-.167.569.248.365-.709.915-.16-.291.818-.343 1.529.64 1.78-.013-.239-.275-.62-.045-.779.296.007.634.12.675-.506.387-.021.16-.635.419-.905.278.032.438-.05.749-.116.307-.065.481-.69 1.105-.28.094-.205.109-.42-.193-.669.13-.245.516-.066.622.37.463-.48.495-.823-.41-1.203.532-.475 1.117-.653 1.59-1.442.187-.13.37-.365.413-.494.43-.176.577-.68.838-1.053-.095.075-1.105.825-1.082-.5.335-.124.614-.29.697-.602-1.008.135-1.043-.68-1.637-.812.115-.363.068-.646-.07-.884-.29.676-1.792.978-1.385-1.269.317.164.753.255.88-.022.382.176.767.37 1.056.087.55.083.926.06.814-.263.85.013.76-.24.754-.47.38-.133.646-.299.368-.618.15-.145.566-.662.154-.758.066-.417.87-1 .193-1.038.013-.349.07-.714.488-1.218-.21-.084-.43-.125-.673-.053.398-.72-.421-1.491.57-2.091a1.532 1.532 0 00-.838.055c.045-.37-.028-.77-.17-1.14.47-.406.567-1.52-.321-2.26.059-.453.294-1.42-.397-2.105.078-.424-.077-1.123-.238-1.233-.06-.041-.078-.13-.088-.205-.072-.526-.412-.802-.785-1.185-1.092-.796-1.947.02-2.274.311-.554 1.094.484 1.372 1.166 1.151-.702-.543-.48-1.383.505-.902.841 1.081-.894 1.75-1.062 3.179-.273 1.489.229 2.57.89 3.607.454.859 1.387 1.888 1.756 3.284.105.287-.196 2.533-.803 2.385-.278.096-1.201-.662-2.402-.704-.617-1.609-2.013-1.898-3.024-2.84-.198-.192-.256-.774-.318-.817a3.316 3.316 0 01-.156-.223c.057-.23.117-.623.111-.82.16-.036.297.207.443.33.117-.568.227-1.122-.37-1.694.01-.079-.145-.19.043-.18.288.179.616.433.703.877.228-.364.283-.729.341-1.093l.14.06c-.003-.355.012-.741-.135-.86.368-.276.757-.544.884-.916-.318.116-.682.362-.885.158.405-.23.84-.452.716-.85-.335.23-.864.418-1.107-.1.264-.29.893-.089.628-1.078-.09.19-.324.583-.685.423-.14-.081-.056-.502-.594-.915l-.05-1.918c-.695.12-.692.798-1.35 1.056-.463-.014-.617-.064-.974-.092-.597-.145-.628.144-.983.28-.405.055-1.185-.125-1.914-.274-.236-.048-.467-.225-.678-.126-.319.175-.3.645-.327 1.231z"/><path fill="#FFF" stroke="#1B1A1C" stroke-width=".1" d="M20.784 12.94l.19-.94.224.03c-.012.346-.044.658.018.97a.659.659 0 00-.432-.06zm1 .198c.054-.238.157-.248.248-.357l.184.068c-.073.126-.053.231-.026.37-.049-.019-.208-.042-.406-.081z"/><path fill="#FFF" stroke="#1B1A1C" stroke-width=".1" d="M21.784 13.08c.071-.2.223-.264.269-.299l.086.007c-.074.129.042.303.077.431-.05-.02-.268-.07-.432-.138zm.216.981c.057-.098.137-.28.28-.28.167.044.387.212.72.42-.428.07-.708-.08-1-.14zM31.954 13c-.247.527-.59.865-.87 1.544-.147.483-.1.516.125.4.282-.337.542-.702.737-1.145.104-.222.03-.577.008-.799zm.715 2.002c.46-.045.354.604.197.922-.127.296-.45.533-.678.887-.08.115-.18.449-.188-.198.026-1.026.541-1.027.669-1.61z"/><path fill="#D8201F" stroke="#1B1A1C" stroke-width=".1" d="M12 14c.028-.485.227-.863.81-1 .338.197.158.756-.027.721-.261-.103-.522.14-.783.279z"/><path fill="#D8201F" stroke="#1B1A1C" stroke-width=".1" d="M13.594 11.24c.203-.207.435-.345.808-.137.502.154.858-.124.656.494l-.03.095c.626-.057.123.749.43 1.031.166.122.335.022.441-.168.094-.169.14-.01.14-.015.003-.09-.008-.17.02-.21a1.74 1.74 0 01.129-.168c.17-.19.303.073.24.247-.017.046-.098.149-.107.202.345-.256.578-.642.583-1.054.08.238.228.354-.078 1.136-.012.241-.09.34-.186.396-.09.157-.459.192-.748.262-.257.658.029.9.014 1.383.472 1.56 2.086 2.822 2.988 3.247-.133.183-.25.186-.402.25.086.043.253.223.508.177-.087.612-.216.86-.455 1.194l-.017.46c-.239.161-.39.486-.642.828-.244.15-.455-.243-.681-.383-.04.432-.227.407-.38.493.132-.607-.252-.956.152-1.617-.188.342-.389.393-.441.85-.354-.577.06-.712.012-.988-.019.048-.21.098-.361.781-.444-.575.075-1.009.083-1.329-.229.23-.534.306-.44 1.197-.82-1.098-.007-1.154.011-1.718-.176.24-.488.331-.505.744-.323-.676.15-.823.277-1.184-.151-.04-.378.177-.53.573-.165-.674.31-.833.357-1.27-.261-.058-.522-.016-.783.357-.13-.632.419-.764.363-1.11-.023-.142.077-.214.064-.166-.1.366-.821.344-.852-.08.311-.04.558-.272.776-1.071-.284.38-.58.854-1.055.444.375-.116.73-.529.272-1.147-.283-.27-.49-.02-.626-.034-.113-.041-.14-.073-.07-.173.068-.101.134-.223.178-.377.02-.16-.01-.175-.096-.044-.106.182-.148.46-.375.511-.073.01-.363.062-.172-.304.27-.307.497-.603-.057-.697.237-.443.42-.645.618-.052.419-.059.756.235 1.004.639.051-.551-.517-.638.026-1.126l.016-.122c-.088-.124-.672-.138-.345-.507.182-.063.318-.188.53-.191-.171-.24-.35-.011-.643.088-.162-.033-.189-.083-.19-.225.33-.003.405-.115.505-.22-.226.126-.323.078-.378-.027.021-.28-.37-.11-.556-.165z"/><path fill="#1B1A1C" stroke="#1B1A1C" stroke-width=".1" d="M15.934 15.996c0 .019-.03.07.044.077.023 0 .096-.047.094-.146-.044.038-.134.035-.138.07zm.871 1.076c.002-.003-.08.12.068.055-.008-.198.29-.062.342-.184.008-.063-.067-.118-.08-.072-.03.128-.236-.026-.33.2z"/><path fill="#1B1A1C" stroke="#1B1A1C" stroke-width=".1" d="M16.012 17.147c-.042.089.035.082.11.05.224-.246.611-.112.864-.358.053-.071-.06-.065-.09-.044-.222.19-.594.053-.884.352zm.997.765c-.01.052-.03.112.063.078.234-.6.617-.534.91-.917.025-.051.032-.087-.029-.067-.31.417-.681.171-.944.906z"/><path fill="#1B1A1C" stroke="#1B1A1C" stroke-width=".1" d="M17.008 17.91c-.027.105.023.108.047.061.205-.691.588-.477.927-.89.054-.1-.032-.085-.043-.07-.3.37-.72.254-.931.899zm.018.92c-.09.2.079.19.116.138.295-.828 1.259-.093 1.84-.816.024-.159.042-.2-.07-.09-.64.656-1.571.046-1.886.768zm.049.278c-.058.02-.135.004 0 .086.861.095 1.405-.095 1.905-.356.053-.076-.008-.06-.075-.04-.51.243-1.064.424-1.83.31zm-.047.732c-.03.053-.077.2.112.15.112-.459 1.218.228 1.824-.854.108-.216-.062-.11-.08-.108-.681 1.058-1.175.344-1.856.812z"/><path fill="#1B1A1C" stroke="#1B1A1C" stroke-width=".1" d="M18.006 19.92c-.018.124.007.07.032.057.151-.403.643-.062.962-.886.002-.127-.01-.095-.042-.057-.259.795-.693.462-.952.886z"/><path fill="#1B1A1C" stroke="#1B1A1C" stroke-width=".1" d="M18.007 19.877c-.018.114 0 .132.027.12.292-.478.764-.187.946-.901.002-.117.04-.108.007-.073-.225.635-.705.46-.98.854z"/><path fill="#D7201F" stroke="#1B1A1C" stroke-width=".1" d="M20.86 10.993c.68.46 1.52.326 2.26.478l.482-.321 1.371.15c.554-.237.777-.588 1.01-.936.352.696-.018 1.144-.302 1.73 1.257-.356.417 1.686 1.845.778-.226.16.059.447-.826.53.435.802.798.583 1.101.537-.035.165-.097.475-.963.393.228.23.505.407.918.429-.254.142-.27.432-.987.286.31.186.618.319.697.976-.288-.119-.526-.375-.864-.357.24.16.758.214.495 1.092-.26-.322-.505-.677-.879-.746-.042.824.514 1.142.344 1.995-.246-.376-.494-.72-.756-.87.197.384.353.768.22 1.358-.428-.21-.302-.244-.446-.36.116.39.53.513.225 1.279-.226-.487-.743-.552-.824-.966-.023-.113.051-.206.11-.387-.573.007-.015 1.029-.386 1.307-.083-.376-.543-.314-.513-1.292l-.048.011c-.1.426-.065 1.052-.41 1.319.013-.502-.475-.36-.169-1.355-.266.352-.24.822-.728 1.016.033-.429-.098-.81.18-1.338-.712.41.136 1.431-.71 1.7.392-.122.661-.125 1.029-.673.105.407.338.426.153 1.015.601-.203.594-.775.7-1.032.113.481.417.403.475.88.288-.183.27-.51.332-.777.62.397.66.635.588 1.043.23-.242.48-.422.523-.907l.318.824c.91.688 2.343 1.601 2.925 2.897 1.304-.02 1.743.932 2.524.74.538-.107 1.135-1.16.92-2.457-.215-1.216-1.445-2.973-1.859-3.676-1.004-2.083-1.385-2.955.349-5.264.466-1.513-.499-1.582-.512-1.586-.132-.045-.99-.14-.637 1.043-1.136.028-.48-1.07-.215-1.246.347-.23 1.269-.557 1.916.338.655 1.145-.143 1.8-.42 2.525-.31.76-.538 1.86-.165 2.623.193-1.72.893-.868 1.672-2.2.17 1.405-1.403 1.374-1.542 2.76.04.057.051.202.138.112-.116-.719.841-1.16 1.355-1.641-.152.83-.959 1.059-.994 2.126.05.345.199.613.468.786-.035-.996.88-.634 1.105-2.116.572 1.627-.977 1.378-.97 2.985l.104.12c.112-.664.37-1.046.7-1.284.171 1.51-.65 1.156-.329 2.426.366.042-.286-.884.799-1.283-.73 1.134.538 1.148-.551 2.238-.001.026-.084.074.013.075.3-.24.533-.206.781-.232-.486.53-.228 1.107-.643 1.44.16.015.324-.023.51-.262-.034.292-.127.849-.592 1.017-.148.25.217.213.457.119-.117.334-.313.504-.595.497.002.192.256.21.405.3-.187.095-.172.312-.787.145.042.185.172.353.299.52-.235-.03-.594-.018-.812-.223-.095.189.047.35.09.521-.58-.029-.826-.23-1.031-.454.018.21.227.365.356.5-.625.159-.993-.283-1.205-.602-.05.264.127.36.192.54-.43.084-.899-.174-1.121-.826.23.428.089.973.01 1.517-.205 1.636 1.259 1.346 1.72 1.162-.125.346-.36.58-.61.742.292.113.397-.278.694-.148.477.273.688.928 1.284.803-.567.467-.864.112-1.22-.117.944.944.31 1.496 1.382 1.541-.155.31-.499.453-1.023.435.791.316.006.508-.507.746.154.185.352.392-.545.47-.005-.006-.124.107.027.143.41.096.1.335-.376.51-.935.877.586 0 .55 1.002-.24-.218-.511-.25-.83-.005-.295.153.232.128.216.46-.237-.05-.645.104-.935.353-.17.147-.62-.006-.693.116-.25.15-.291.495-.28.889-.128.233-.421-.048-.517-.127-.048.091-.024.196.241.342-.018.11.056.236-.103.321-.366.035-.357-.487-.75-.37-.54-.29.64-.813.605-1.304l-.509.53c-.02.183-.425-.036-.654-.071-.035.286-.21.352-.377.434-.168-.006-.088-.27-.105-.434-.286.375-.018.7-.413.965-.166-.022-.587-.186-.103-.51.14-.123.033-.36-.09-.65-.087-.093-.086-.176.097-.235.75-.019.867-.225 1.852-.357-.432-.095-.903.075-1.274-.429l.087-.25c-.224.03-.284.33-.672.286-.271.062-.193-.078-.174-.183.436.001.51-.374.621-.711.345-.2.351.252.482.465.226-.854.751.541 1.165.284 1.553-1.034.883-2.877 1.737-2.785-.198-.129-.605-.44.145-.841-.297-.046-1.172.355-.706-1.092-.58.284-.097 1.056-.851 1.039.278-.479-.016-.63.369-1.218-.702.165-.05 1.125-.935 1.432.238-.52-.067-1.08.353-1.634-.795.083-.08 1.074-.898 1.777.382-.47-.635-1.755.31-2.147-.072-.4-.796-.511-.03-1.285-.659-.53.154-1.1-.428-2.064-.892-.917-2.156-.775-2.881-1.299-.601-.168-1.424.15-1.756-.608.349-.332.877-.478.953-1.093-.4.572-.941.856-1.435 1.236-.28.512.023.772.109 1.125-.827.005-.586-.523-.625-.91-.31.314-.798.727-.415 1.448-.586-.072-.457-.669-.411-.876-.435.23-.825.489-.3 1.338-.45-.008-.703-.22-.613-.787-.404.259-.682.58-.186 1.29-.339-.032-.668-.092-.687-.665-.392.289-.258.747-.191 1-.303-.022-.501-.303-.598-.586l-.304.236c-.084.189-.017.283.007.404-.172.002-.327-.13-.49-.142.073.11.19.176.156.397-.219.043-.335-.128-.492-.215.089.275.205.557.002.762-.12-.189-.049-.444-.366-.565-.54-.186-.416 1.01-1.033.465.003.583-.436.319-.704.382 0 .157.084.686-.226.584-.1-.24-.732-.382-.557-.498.098-.171.224-.176.344-.21.064-.569.263-.366.403-.559.134-.183.238-.363.247-.54-.973.035-.888.492-1.17.378l-.007-.413c-.096.28-.223.636-.497.82-.116-.038-.168-.135-.122-.319.118-.238.655-.223.128-.85-.024-.047.076-.11.272-.024.526.151.882-.22 1.363-.119.048-.015.113-.093 0-.2-.316-.171-.778-.271-.508-.487.213-.054.25-.423.325-.444.165-.045.244.162.43.305.311.24.613.499 1.122.24 1.219-.835 1.419-1.654 2.52-2.12.08-.849.644-1.09 1.1-1.498.198-.272.447-.544.508-.816-.309.202-.617.686-.926.516.62-.694.123-1.127 1.153-1.637-.411-.074-.488.276-.978.149.573-.237.334-1.085 1.222-1.214.03-.004 0-.146.014-.137-.325-.142-.485.106-.876.081.416-.313.285-.9 1.788-.667.117-.023-.017-.291.255-.296 1.342-.025 2.447-.682 2.544-1.496-.285.282-.447.71-.978.701-.305-.325-.925-.026-1.188-.423-.038-.057-.121.004-.159.022-.166.08-.477.104-.78.014-.097.274-.246.278-.344.406a.509.509 0 00-.154-.427c-.166-.178-.197-.344.018-.37.397-.006 1.057-.045 1.554.055.6.12 1.021.233 1.25-.01.302-.292.097-.72-.049-.838-.37-.346-.726-.745-1.11-.908-.75-.305-1.274-.45-1.754-.42-.418-.04-.59-.662-.337-.684.2.022.327.115.263-.052-.193-.45-.273-.781.155-.579z"/><path fill="#D8201F" stroke="#1B1A1C" stroke-width=".1" d="M19.619 26.317c.884-1.33.735-1.036 1.447-1.078 1.071-.238-.018-.68 1.343-.559.443-.226.276-.515.93-.564 1.295-.038 2.331.427 3.591-.116.147.423.016.846.023 1.268-.608 1.06-1.221.43-1.89.837-.752.367.265.804.141 1.406-.498.913.188.845.55.904-.45.434-.809.373-1.116.028-.386.105-.143.59-.182.906-.233-.025-.433-.162-.595-.424-.014.391-.555.393-.294 1.03-.319.03-.484-.147-.624-.491-.652.634-.395 1.002-.316 1.199-.64.116-.591-.421-.638-.566-.36.214-.775.405-.27.981-.868-.122-.717-.439-.734-.723-.538.297-.57.798-.612 1.138-.783-.31-.313-.577-.162-.855-.313-.068-.292.48-.586.636-.04-.196.071-.478-.13-.582-.32-.023-.791-.13-1.054.37-.04.166-.032.92-.415.5-.113-.222-.274-.316-.51-.215.129.126.413.014.378.388-.024.198-.279.362-.309.198-.08-.436-.46-.369-.52-.682.284-.15.791-.358.756-.764-.309-.202-.537-.043-.846.012-.08.033-.391.27-.438.074.172-.253.092-.346.061-.47a1.648 1.648 0 01-.26.49c-.222.078-.361.023-.335-.103.232-.112.316-.305.299-.553-.255-.458.05-.409.349-.27.157.073.274.217.392.225l.967-.059c-.115-.132-.238-.478-.434-.515-.23-.043-.306-.056-.235-.256.32-.114.244-.335.342-.508-.12.275-.319.375-.545.415-.367-.03-.375-.236-.11-.353.382.023.617-.163.785-.444.634-.273.524.472.354.596.31.23.632.6.909.45.316-.198.5-.411 1.112-.579.918-.14 1.439-.497 1.62-.902.208-.643-.32-1.014-.157-1.566-.44.036.113.41-.805.504.11-.165.321-.207.322-.327.002-.548.56-.334.653-.763-.902.333-.771-.018-1.144.032-.46.063-.496.649-1.058.7zm-6.055-3.296c-.213 0 .05.697-.444.728-.147-.014-.143.15-.073.19.112.07.237.084.378.02.363-.085.585-.634.575-.732-.128-.267-.34-.24-.436-.206z"/><path fill="#D8201F" stroke="#1B1A1C" stroke-width=".1" d="M13 23.219c.245-.045.355-.177.706-.038.21.054.37-.293.256-.39-.259-.03-.84-.019-.962.428zM12 26c.031-.815.417-.842.717-1 .206.014.404.257.193.493-.675-.035-.72.276-.91.507zm1.844.003c-.064.352-.161.89.223.997.03-.232-.105-.55.149-.69-.134-.28-.238-.323-.372-.307zM17 27.88c.34.032.547.087.723.339.131-.052.39-.072.223-.348-.357-.138-.547-.103-.946.01zM15 31c.264-.423.547-.606.85-.538.095-.163.283-.335 0-.462-.44.035-.766.288-.85 1zm2.183 2c.108-.183.066-.61.817-.635-.052-.236-.357-.406-.57-.357-.25.17-.676.357-.247.992zM25 31.778c.167-.244.38-.412.563-.264.107.087.194.507.28.485.105-.123.269-.636.045-.896-.191-.082-.624-.384-.888.675zM25.062 35c-.027-.314-.292-.69.53-1 .558 0 .452.393.221.393-.231.02-.5.168-.751.607zm2.035 1c-.13-.204-.401-.335-.284-.908.169-.198.29-.046.403.16-.194.174-.12.433-.119.748z"/><path fill="#1B1A1C" stroke="#1B1A1C" stroke-width=".1" d="M21.794 20l.175.01c.052.763.196 1.576-1.195 1.54-.204 1.38-1.115.327-1.774 1.45.237-1.07 1.832-.468 1.596-1.663 1.32.258 1.346-.473 1.198-1.337zM22 21.651c1.12.497 1.483-.123 1.89-.651l.11.143c-.4.476-1.081 1.344-2 .508zm6.974 2.477c-.16.365.184.489-.08 1.089-.104.236-.313.514-.787.783-.095-.006-.145.001-.072-.088 1.183-.887.363-1.039.694-1.582.028-.088.07-.109.096-.184a.581.581 0 01.052-.093c.093-.103.163-.044.097.075zM29 32.91c.001.066.006.124.072.066.316-1.112.737-.758.918-1.56.256-.215.305-.386.29-.542.13-.166.382-.275.391-.701.263-.135.313-.486.324-.604.07-.82-.566-.773-.511-1.41-.027-.077-.031-.186-.144-.153-.106.828.97 1.314.243 2.069-.027.028-.196.156-.363.13l-.025.132c.095.03.193.053.311-.032-.011.246-.259.442-.524.432l-.038.105c.147.173.183.402-.166.46.128.744-.655.6-.778 1.608zm-5.995-20.603c.765.085.89-.473 1.365-.257.43.405.03.443.032.66.176.05.34.11.598.088-.188.1-.459.1-.698.116-.578.273-1.176-.17-1.124-.392-.068-.066-.207-.098-.173-.215z"/><path fill="#FFF" stroke="#1B1A1C" stroke-width=".1" d="M31.842 12c-.119.888-.59 1.048-.842 2 .377-.533.624-.385 1-1.191.007-.251-.05-.738-.158-.809z"/><path fill="#D8201F" stroke="#1B1A1C" stroke-width=".1" d="M23.784 11.805a.936.936 0 01.333.414c.064-.068.143-.23.068-.337-.12-.124-.32-.113-.4-.077z"/><path fill="#FFF" stroke="#1B1A1C" stroke-width=".1" d="M24 12.333c-.031.035-.173.186-.196.147-.048-.08-.237-.143-.357-.043-.164.148.098.301.256.362.037.06.017.131.004.201-.356-.051-.923-.592-.622-.742.338-.014.369-.303.672-.252.24.093.23.193.243.327z"/><path stroke="#1B1A1C" stroke-linecap="square" stroke-width=".1" d="M25.784 12.781c.761.196.348.483.032.432"/><path stroke="#1B1A1C" stroke-linejoin="round" stroke-width=".1" d="M25.062 13c1.179.41 1.342 1.066-.062.995m.553.005c.72.373.595.927-.553 1m.072-1.219c.114.13.365.59-.288.387M25.047 14.781l-.094.438"/><path stroke="#1B1A1C" stroke-linecap="round" stroke-linejoin="round" stroke-width=".1" d="M24.992 14.854c.333.244.04.316-.136.285"/><path fill="#1B1A1C" stroke="#1B1A1C" stroke-width=".1" d="M25.065 11.765c.16.036.36.03.388.201.097.045.197.062.317-.053.242-.338.273-.595.185-.913-.235.467-1.214.51-.89.765zm-.98 9.956c-.117.028-.107.29-.01.279.317-.084.612-.471.898-.867.033-.024.053-.182-.047-.118-.16.248-.481.603-.84.706zm-.024.342c-.123.015-.038.162.063.156.335-.045.57-.159.871-.37.02-.033-.018-.092-.123-.058-.168.133-.433.217-.811.272zm1.025.015c-.115.012-.11.146-.015.14.34.005.647-.188.928-.359.01-.028-.056-.104-.12-.069-.133.112-.44.243-.793.288z"/><path fill="#1B1A1C" stroke="#1B1A1C" stroke-width=".1" d="M25.09 22.066c-.19.076-.034.158.066.153.332-.037.517-.208.815-.38.036-.01.056-.08-.048-.051-.402.242-.615.19-.834.278zm.979.984c-.159.036-.008.174.097.169.347-.04.507-.174.818-.362.037-.012.011-.1-.097-.07-.174.118-.359.24-.818.263zm.742.014c-.03-.002-.067.098.082.08a.391.391 0 00.311-.236c.034-.068-.013-.058-.041-.042-.057.093-.147.176-.352.198z"/><path fill="#1B1A1C" stroke="#1B1A1C" stroke-width=".1" d="M26.881 23.03c-.028-.001-.062.054.084.041.093-.01.115-.05.167-.105.034-.05-.013-.042-.04-.03-.056.066-.11.084-.21.095z"/><path fill="#1B1A1C" stroke="#1B1A1C" stroke-width=".1" d="M26.881 23.03c-.028-.001-.062.054.084.041.093-.01.115-.05.167-.105.034-.05-.013-.042-.04-.03-.056.066-.11.084-.21.095z"/><path stroke="#1B1A1C" stroke-linecap="round" stroke-width=".1" d="M23.072 27c-.376-1.053.13-1.424-.09-2m.024 0c.235.667-.252 1.353-.007 2m-1.1-1c-.115.413.013.728.245 1"/><path stroke="#1B1A1C" stroke-linecap="round" stroke-width=".1" d="M23.6 25c-.122.683-.69.941-.588 1.468.193 1.005 1.807.996.45 2.532M24.62 29c.305-.333.521-.943.27-1.25-.38-.458-.973-.83-.88-1.625.05-.44.627-.51.988-1.125"/><path stroke="#1B1A1C" stroke-linecap="round" stroke-width=".1" d="M25 25c-.316.487-.8.25-1 1m2-1s0 0 0 0c-.186.095-.228.303-.469.447-.415.248-.437.373-.517.531L25 26"/><path stroke="#1B1A1C" stroke-linecap="round" stroke-width=".1" d="M26 24c-.25.072-.307.646-.476 1.079-.164.421-.357.32-.518.91L25 26m1 0c.336-.55.822-.554 1-1"/><path fill="#1B1A1C" stroke="#1B1A1C" stroke-width=".1" d="M20.017 30.865l-.017.133c.344.015.665-.05.732-.143.25.01.515-.055.766-.375.084-.017.1.06.095.166.182-.106.363-.223.447-.408.051-.018.066.057.099.046.16-.073.308-.03.469-.306.548-.084.605-.293.664-.423l.036.197c.856-.542.37-1.002.692-1.644-.038-.129-.058-.104-.112-.108-.303.684.155 1.322-.527 1.54-.027-.253-.036-.436-.088-.744l-.162.004c.064.468.103.87-.315 1.04-.068-.205-.091-.512-.123-.553l-.07.037c.002.482-.157.734-.477.862.06-.18.067-.224-.015-.47-.006.012-.073.023-.074.031-.02.307.026.539-.432.666.003-.1-.141-.22-.209-.286-.003.44-.28.59-.807.608.032.174-.364.097-.572.13z"/><path fill="#1B1A1C" stroke="#1B1A1C" stroke-linecap="round" stroke-width=".1" d="M28.784 26c.186-.295.665-.688.296-1m-.224 2c.127-.23.308-.283.286-1m-.286 1.219c.127-.101.308-.124.286-.438m-.214.438c.063-.101.154-.124.143-.438m.857.292c.063-.034.154-.041.143-.146M29.932 28.073l.136-.146"/><path stroke="#1B1A1C" stroke-width=".1" d="M25.107 16c-.098.248.368.688-.113 1 0-.187-.188-.215-.21-.374m.288.374c-.012.5-.022.977-.144 1"/><path stroke="#1B1A1C" stroke-width=".1" d="M25.566 16c.775.27.32.58.101 1-.32-.276-.599-.31-.667-.467M26.027 15c.072.316.34.432.073 1-.104-.117-.154-.284-.316-.347M26.001 14c-.002.289.46.3.036 1-.069-.18-.24-.2-.253-.36"/><path fill="#D8201F" stroke="#1B1A1C" stroke-width=".1" d="M19.557 13.16c-.613.217-.888.873.067.581.484-.25.93-.5 1.9-.29 1.092.174 1.716.48 2.458.549.012-.09.06-.18-.077-.27-1.14-.208-1.61-.534-2.688-.692-.554-.038-1.107-.1-1.66.122z"/><path fill="#FFF" stroke="#1B1A1C" stroke-width=".1" d="M20.883 13c-.123-.297-.088-.656-.099-.953.1-.052.315-.102.432.09-.187.233-.275.6-.333.863z"/><path fill="#FFF" stroke="#1B1A1C" stroke-width=".1" d="M20.835 13c-.021-.326-.092-.687-.019-.949.107-.067.323-.114.4.164a2.566 2.566 0 00-.381.785zm.975.219c-.003-.16-.079-.318.045-.429.134-.042.226.075.36.15-.195.022-.293.12-.405.279zm1.144 0c-.104-.181-.069-.286-.098-.427.101-.015.203-.049.288.18-.063.04-.127.116-.19.247zm-.098.887c.056-.163.11-.19.166-.252.024.099.062.248.122.281a.474.474 0 01-.288-.03zm-1 .033c.043-.12.044-.239.194-.358.016.148.006.312.094.417-.106.018-.219.057-.288-.06zm-1.072.03c.091-.23.208-.302.322-.388.019.138.002.276.11.414-.137.008-.252.063-.432-.026z"/><path fill="#FFF" stroke="#1B1A1C" stroke-width=".1" d="M20.784 14.205c.058-.172.183-.355.352-.424-.032.135-.012.301.08.397-.197.077-.29.021-.432.027z"/></g></svg>