<svg xmlns="http://www.w3.org/2000/svg" width="350" height="350" viewBox="0 0 350 350">
  <g fill="none" fill-rule="evenodd">
    <rect width="350" height="350" fill="#EFEFEF"/>
    <g transform="translate(100 90)" style="mix-blend-mode:overlay">
      <g fill="#FFF" fill-rule="nonzero" transform="matrix(1 0 0 -1 0 169.443)">
        <path d="M21.1685013,163.465138 C18.7270675,160.721865 16.0174993,157.709921 15.1707592,156.776642 C13.2232571,154.655555 10.8382727,151.968844 8.11459215,148.857916 C6.95738075,147.542841 5.40502399,145.789409 4.65707028,144.969255 C1.0725374,141.052314 0.0987863393,139.864505 0.225797347,139.624115 C0.296359018,139.482709 0.903189388,138.648415 1.56646909,137.757558 C5.56025967,132.426558 8.98955687,125.214861 10.852385,118.229413 C11.8966977,114.27005 12.4470787,111.003575 12.7998871,106.648276 C13.1950325,101.571807 12.7857748,94.8691704 11.7696867,89.7502794 C10.0338696,81.0113992 6.25176404,72.4846277 0.959638724,65.4001957 L0,64.0992621 L0.564493367,62.642782 C7.16906576,45.9427537 18.1484618,31.0951417 32.1478973,19.9240812 C43.748236,10.6619995 58.5520745,3.40788047 72.1563647,0.311092823 L73.5393734,0 L75.4727632,0.381795737 C91.8995202,3.57756746 108.537962,11.6376997 121.154389,22.4835267 C128.7186,29.0023354 134.137736,35.0969266 140.079029,43.7933851 C143.000282,48.0779817 147.248095,55.9825675 149.040361,60.4368511 C149.618967,61.8791906 149.633079,61.9498935 149.407282,62.2751269 C149.266159,62.4589545 148.574654,63.4063735 147.854925,64.3962143 C144.213943,69.4161212 141.151566,75.7652429 139.218177,82.3264734 C134.942139,96.8629925 136.254587,112.912554 142.830934,126.558217 C144.806661,130.658986 147.106971,134.476943 149.252046,137.234357 C149.675416,137.771699 150,138.266619 149.986331,138.337322 C149.929438,138.478728 146.528366,142.324966 144.510302,144.545038 C143.691787,145.435895 142.506351,146.750969 141.89952,147.457998 C141.278577,148.150887 138.964155,150.766894 136.748518,153.255637 C134.532882,155.730239 131.31527,159.39265 129.621789,161.372332 C127.914197,163.352013 126.136043,165.374116 125.670336,165.869037 L124.823596,166.745753 L121.930567,165.289273 C112.969235,160.792568 103.965566,158.65734 93.917584,158.65734 C88.2867626,158.65734 83.700254,159.251244 78.1541067,160.679443 L75.9243579,161.259207 L73.9204064,160.764286 C68.3742591,159.378509 64.5921535,158.926011 58.5661868,158.926011 C54.1066892,158.91187 53.6974316,158.940151 49.4637313,159.562337 C41.8289585,160.665302 33.6861417,163.592403 27.1380186,167.565907 C26.3618402,168.046687 25.6844482,168.442623 25.6703359,168.442623 C25.6421112,168.442623 23.6099351,166.19427 21.1685013,163.465138 Z M28.5210274,161.612721 C36.2404742,157.724061 44.0587073,155.447427 52.4978831,154.655555 C54.4312729,154.471727 55.9271804,154.429305 59.4129269,154.485868 C65.5941293,154.584852 69.4326842,155.065632 72.5373977,156.154456 C74.7671465,156.932189 74.6542478,156.918048 76.0372566,156.578674 C76.7146486,156.423128 78.0976574,156.097894 79.0996331,155.857504 C81.1882585,155.348443 84.1377364,154.839382 86.9319785,154.500008 C89.5004234,154.188915 96.3166808,154.075791 99.0262489,154.2879 C107.352526,154.966647 114.817951,156.96047 122.283376,160.509756 C123.285351,160.990536 124.174428,161.358191 124.259102,161.315769 C124.357889,161.287488 125.557437,159.944133 126.926334,158.346247 C129.734688,155.079772 136.184025,147.853934 142.675699,140.698799 C143.804685,139.454428 144.736099,138.379744 144.765314,138.309041 C144.792549,138.238338 144.213943,137.276778 143.480102,136.173813 C140.643522,131.875076 138.808919,128.240946 136.833192,123.037211 C134.928027,117.974883 133.672029,112.57318 132.994637,106.50687 C132.655941,103.452504 132.655941,96.2549475 132.994637,93.2854251 C133.926051,85.0414653 135.859441,78.1550014 139.161727,71.3109593 C140.544736,68.440421 141.363251,66.9980816 143.070844,64.3679331 L144.411516,62.3175486 L144.07282,61.3277078 C143.889359,60.7903657 143.127293,59.1076363 142.37934,57.5804534 C134.504657,41.5733136 122.325713,27.9700729 107.324301,18.4251795 C97.6291279,12.2457448 87.3130116,7.96114815 76.1501552,5.47240556 L73.3135761,4.83607934 L72.043466,5.10475041 C67.7956534,6.00974771 62.8281118,7.65005532 57.6488851,9.88426741 C37.9480666,18.3827577 21.2249506,33.456619 10.5419136,52.3625783 C8.73553486,55.5442094 6.02596669,61.186302 5.06632797,63.7457475 L4.78408129,64.4810578 L5.96951736,66.2910524 C9.9915326,72.4563465 12.6587638,78.6075001 14.4651425,85.9040408 C15.7493649,91.0794942 16.342083,95.7034648 16.4408693,101.204151 C16.596105,110.777326 14.7050522,120.053548 10.7818233,128.990397 C9.22946655,132.511402 6.46344905,137.418184 5.20745131,138.860524 C4.98165397,139.115054 4.79819362,139.412006 4.79819362,139.525131 C4.79819362,139.624115 5.39091166,140.387707 6.1106407,141.19372 C6.81625741,142.013874 9.4976009,145.054099 12.0660457,147.952918 C14.6203782,150.865878 17.1323737,153.693995 17.6545301,154.231337 C18.1625741,154.78282 19.8983912,156.72008 21.5213096,158.544215 C24.1320914,161.499597 25.5574372,163.069201 25.6279989,163.069201 C25.6421112,163.069201 26.9404459,162.418735 28.5210274,161.612721 Z"/>
        <path d="M22.6926334,155.687817 C18.1343494,150.554786 16.4408693,148.631666 13.3079311,145.039958 C11.8120237,143.328948 10.1185436,141.391688 9.53993791,140.727081 C8.48151284,139.539272 8.32627717,139.270601 8.60852385,139.100914 C8.86254587,138.945367 10.979396,135.268816 12.0519334,133.105306 C15.96105,125.299705 18.5153824,116.362856 19.2068868,108.062334 C19.4326842,105.389764 19.4326842,98.7436901 19.2068868,96.3256504 C18.2049111,85.3808393 15.0296359,75.4824313 9.69517358,66.6587076 L8.56618685,64.7638695 L9.03189388,63.6184823 C9.65283658,62.0630181 12.2212814,56.7602996 13.2938188,54.8230397 C19.7290432,43.1570589 28.8879481,32.5374811 39.1617273,24.8167229 C45.2864804,20.2068929 52.4273215,16.0071398 59.1306802,13.051758 C62.3341801,11.6376997 68.4448208,9.37520643 71.577759,8.42778738 L72.720858,8.08841339 L74.4990121,8.45606855 C79.9322608,9.57317459 86.6497319,11.694262 92.0124189,13.9850364 C105.715495,19.8392377 117.541631,28.677102 127.152131,40.2582394 C131.752752,45.8013479 135.97234,52.4050001 139.472199,59.5177132 L140.728196,62.0912993 L139.952018,63.2791083 C137.270675,67.3657367 134.758679,72.6401741 133.022862,77.829768 C130.609653,85.0414653 129.466554,92.0834755 129.494778,99.7193903 C129.494778,103.35352 129.621789,105.276639 130.129833,109.052175 C131.357607,118.342538 134.843353,128.028837 139.754445,135.86272 C140.347163,136.810139 140.86932,137.686855 140.925769,137.81412 C140.982218,137.969667 140.248377,138.874664 138.484335,140.811924 C137.101327,142.353248 135.379622,144.276367 134.64578,145.096521 C133.911939,145.916674 132.698278,147.26003 131.964437,148.080184 C129.523003,150.766894 127.504939,153.057669 125.388089,155.50399 C124.24499,156.833204 123.257127,157.922029 123.186565,157.95031 C123.130116,157.978592 122.480948,157.738202 121.775332,157.412968 C115.001411,154.358602 107.719447,152.477905 99.7742027,151.728454 C97.3468812,151.502205 90.6717471,151.502205 88.2726503,151.742595 C84.5893311,152.081969 80.3415185,152.803138 77.2085803,153.595011 L76.1501552,153.863682 L74.7248095,153.453605 C71.7612193,152.619311 68.4024838,152.053687 64.2111205,151.671892 C60.9652837,151.38908 54.0643522,151.459783 51.0866497,151.813298 C42.2099915,152.902122 34.8998024,155.051491 27.490827,158.770464 C26.8134349,159.109838 26.1924922,159.39265 26.1219306,159.39265 C26.0513689,159.39265 24.5131245,157.724061 22.6926334,155.687817 Z"/>
      </g>
      <g stroke="#1B1A1C" stroke-width=".615" transform="translate(27.05 30.508)">
        <path fill="#1B1A1C" d="M34.8101767,9.55139088 C35.2598964,10.2929085 35.7289653,10.9573642 36.3619516,10.96892 L36.5410727,13.2876604 C34.3599736,13.4869593 32.1023409,13.3052022 30.0926367,14.3578494 C28.3643274,15.3685834 28.1752233,16.3793152 28.480526,17.3900494 C31.4062062,18.8448644 32.0296817,15.1389002 37.2575664,15.784768 L48.600784,18.0640813 C48.2632508,18.6322123 48.1806403,19.3403762 47.0086075,19.1865694 L45.6925215,17.0292954 L44.6016217,18.816968 C43.5471566,18.4243359 43.885616,17.2611336 43.578061,16.4553109 L41.8148419,18.7381109 L41.2171358,16.0832934 L39.0186326,18.2724863 L38.6698129,16.1621505 C37.4578033,17.060566 36.5437204,16.9498466 36.0244455,19.0554131 C35.5094245,21.5686205 37.4013395,19.0105351 37.3574973,23.1559235 C38.2105757,23.0703178 39.0251049,22.7160132 39.6936425,21.3441135 C40.7228532,21.7914585 41.9693592,21.5896806 43.1753552,21.5089159 C44.7596339,23.1087082 46.982524,22.4828342 48.900579,22.9193545 C47.7834738,26.0185384 40.7094094,23.8421186 40.5817165,26.5561163 C36.1620807,25.1745009 33.8733945,27.6805661 31.7933648,30.213531 C32.553224,30.6682567 33.3130832,30.5102164 34.0729424,30.4313255 L32.4212388,33.0861428 C25.1732559,29.9461503 22.0534746,24.8401608 18.9869921,19.7087899 C18.990523,17.6013653 17.2348402,14.7396478 21.4440574,14.7530572 C22.1525358,14.589294 23.3377029,14.4089519 22.8372011,12.1780463 C24.9827941,9.06846513 24.0935613,7.33250681 22.1697297,6.06482982 C22.8159679,7.69400545 21.6149961,9.52356201 21.1553274,9.74102133 C19.3935767,7.52128019 18.7540051,11.3296088 17.0098573,11.9827628 C15.9269524,9.73787649 17.9016361,9.02129485 15.6326741,7.54056311 C16.4888383,5.4880629 14.5964127,4.16373163 12.4089406,4.90304472 C12.1375175,4.99477809 12.1655506,4.53943827 11.896129,4.39623127 C10.4304911,3.61719607 7.72291725,4.48425517 6.42950797,7.43354422 C6.84737223,7.8954549 8.02933598,5.84476105 9.62652086,6.80935056 C9.39999943,8.05039992 9.05342082,9.38111085 10.2668831,9.54674786 C10.103309,10.8143034 10.9609846,11.2344179 11.8937118,11.5922588 L10.9188413,13.0848185 L8.61165085,13.0832529 C7.38332149,10.2579216 5.61456535,12.063613 4.55463324,13.8687082 C1.81015942,14.6864667 2.04090082,17.0274237 2.13054837,19.076066 C2.82229818,18.2870699 2.08492149,17.2134595 4.42998783,16.7537263 C4.27915503,19.4956227 5.65027708,18.7734937 6.73679871,18.6991244 C7.80149751,19.8168773 8.86619631,18.9748667 9.93089737,19.0835749 C12.1183469,21.0977725 11.0847783,22.532101 8.65817911,23.1164961 C9.54771017,24.6840707 10.7142488,24.0449762 11.7702388,24.2865167 C12.6069614,25.6927127 10.5631382,25.2735947 9.54248263,25.502828 C10.0529606,26.6181312 10.7029647,28.1525096 13.3761212,27.7161378 C12.1185411,29.3277739 11.7798581,31.5646272 12.7478474,33.1762632 C13.4440047,32.2735582 14.140162,30.9446671 14.8363193,30.8882738 C14.2916499,32.7938845 13.0212653,34.568105 14.3800391,36.8183295 C14.3803306,37.4305286 14.8863401,37.7909408 15.6281378,38.0339592 C15.5860939,40.1531466 18.0119001,42.4927671 16.8375134,45.0365771 C18.0259156,44.8339331 18.9379652,43.9891961 19.5682587,42.4898113 C20.7667522,43.7857895 23.2195886,43.9021259 21.3137101,48.1175938 C23.3622163,48.2974231 23.5009359,46.5755558 24.5492405,45.7594214 C25.2901775,47.115399 26.2967882,46.8840803 27.2059214,47.2351569 L18.0913773,55.9168224 C15.6907418,57.6781981 14.4399864,56.7997767 13.4022883,56.61604 C12.3739179,55.6994418 11.4590037,54.9866844 10.0817392,54.9386323 C10.1929927,53.3343521 8.101209,53.3904283 7.16654805,53.7653881 C3.34212656,53.0299104 3.06874028,55.8304272 2.06078535,57.8994884 C3.0641498,57.2610237 3.94512794,55.891351 5.11380371,56.240547 C5.03919042,57.7903549 5.59563868,58.7117738 7.56045013,58.2307939 L8.23959646,60.0192111 C6.41431106,60.712472 4.46514157,58.7983625 2.80506357,60.6760072 C-0.349500978,61.8383929 -0.208102146,64.555513 0.23938559,66.5792778 C0.91512747,65.760372 1.24300983,63.6058761 2.58015062,63.9395166 C2.01840478,69.5399494 6.13335681,63.8307836 7.96054211,63.6540946 C7.96785705,63.5781237 10.0384595,63.3839919 9.49123061,63.6137134 C9.04812099,63.7997244 7.66175007,65.7932465 7.2853266,66.5946915 C6.99681343,67.2089693 5.6027006,67.7692427 5.5739514,68.6757134 C5.50793621,70.7572055 3.63636427,73.4153926 8.02087794,74.1194084 C8.14846694,73.9320004 6.58942684,71.7560283 7.99343449,71.0181099 C11.7391153,71.5955787 10.9481575,69.8067745 10.9771168,68.4456343 C12.0821291,68.0517357 13.1468663,67.3478932 14.3072512,67.2864924 C15.0921434,67.2449617 16.2563303,67.0752777 16.6376493,66.2225481 C18.1199051,63.2304259 18.1513087,67.4618473 18.8078686,68.580716 C19.4021093,67.3013775 20.4429837,66.7632754 20.5387669,64.6566921 L21.7117847,64.8063867 L22.16825,63.7796699 L24.0024453,63.9432328 C23.5676017,63.225198 23.2894758,62.5331721 23.9571934,61.9981182 C25.3830804,63.5891553 26.9589688,63.5371846 28.5691457,63.1096129 C27.7549373,62.2795 26.0924059,61.7028073 26.9792103,60.3645515 C28.5543871,61.9553142 30.1295661,61.8533567 31.7047452,61.6244923 C30.6943595,60.6365865 29.348546,59.7094066 30.2974957,58.3667664 C32.0171392,57.5731318 29.8978533,59.9884444 34.9289643,59.6624815 C34.4084853,58.3379163 32.5002144,57.2259559 34.1497741,55.5689536 C34.9030028,56.3433143 34.5258971,58.7532483 39.0488005,57.8788355 C36.7283718,57.017164 36.0676664,54.9177769 38.2204682,53.5241581 C38.853145,54.4902637 38.4723728,56.6787275 43.1686344,55.3817279 C41.5523241,53.9235814 41.2659051,52.3875361 42.8103876,50.744247 C44.4218996,53.6250065 47.4720489,53.0267319 50.3335663,52.8846226 C55.6692639,56.5723205 59.6128977,55.2487 63.4095663,58.9490222 C57.5390986,62.0893656 52.9080277,59.6760461 47.6995101,59.8502336 C44.2515483,60.5747111 46.1656363,62.2460113 41.4396225,62.5538655 C40.5705227,62.7983641 40.7857328,64.7965293 39.7347761,64.782535 C32.213007,64.6814526 35.4600475,69.5556983 30.4508836,69.8292698 C34.8520693,72.789658 35.4184373,66.6794244 39.6069114,68.4230041 C38.0728614,69.6546819 39.6746255,70.9709104 35.1080877,71.434551 C36.6031661,73.2681522 38.8821337,73.0909728 40.560978,71.4138981 C43.6337657,80.3229635 35.2931277,77.8660977 30.4508836,82.1364315 C29.4836058,81.6702377 28.45728,81.4980343 27.6641015,80.1650334 C29.2467626,76.7854777 26.7843726,77.4417046 25.2563069,76.8155314 C22.060724,74.4876106 20.2448613,76.6036126 19.0567551,78.1635929 C20.3470717,78.3195794 21.6373882,77.4583421 22.9277048,79.2825965 C21.1910594,79.1676413 18.4764689,82.1498634 22.9277048,82.3241836 C22.0301743,84.067887 24.9000616,83.1949184 25.4354303,84.9902664 C24.5791486,84.8856343 22.7461732,85.0686511 21.8898892,84.7160291 C20.0593243,83.9621886 19.2054508,82.744496 17.3748836,84.9902664 C12.9502327,85.6774423 15.1728765,89.0122774 14.1506645,91.054666 C15.2098534,90.0901147 15.1177976,88.142962 17.3748836,88.200831 C17.0562568,90.6525522 18.0271535,89.985829 18.9775649,89.3686516 C20.24274,89.7388357 21.5079174,90.2475702 22.7730926,88.8241699 L24.6586008,88.7359255 C25.4013361,89.3504012 23.0373408,90.6277849 21.3155964,91.7681253 C21.2303496,93.6235851 17.1570913,95.7734628 21.6135051,98.8632864 C21.3265824,96.6817197 21.1932688,94.6225204 23.6441985,94.6219603 C25.8977354,96.1329683 25.9227662,94.7591858 26.4175299,93.99347 C28.5171346,94.44434 28.7413043,92.8409664 29.031801,91.3102458 C29.4753285,90.2150219 30.5445387,89.2543758 32.0837327,90.341209 C32.5674518,92.0570948 32.9068397,92.9728426 34.1303775,92.6668825 C35.2343009,94.0592416 36.6739796,93.9471073 38.1437562,93.700096 C37.0059894,92.3734612 35.9600026,91.2361127 37.8090537,88.8777828 C38.1314668,90.7851977 39.780351,91.4818283 42.3333555,91.3531937 C41.8027105,90.3082264 40.435124,89.2632591 42.1571915,88.2182896 C44.0963012,90.7141622 45.8596242,90.0593367 47.6165495,89.2897968 C46.5171669,88.4343497 44.2145963,87.9286903 46.6397497,85.9764289 C47.0653559,85.6885797 49.3048232,88.1952972 51.6838166,86.9315209 C52.0348298,86.7450533 48.6688075,84.7868419 50.5839325,83.3618309 C50.6991055,83.276133 51.0437684,82.9910687 51.1664981,83.2214471 C52.0568673,84.8927608 55.4739677,83.9203497 54.8558033,83.5305498 C53.4857656,82.6666332 53.9885175,81.2628758 54.0966941,81.0989574 C53.9512063,81.2569775 58.5121574,82.3100566 59.3594931,78.1222894 C57.0550701,79.1316219 55.6581673,77.7744701 56.0468237,76.4698514 C56.2260262,75.8683127 57.0166497,75.4097673 56.9987374,73.8548687 C57.2722953,72.2993156 53.1398286,69.9438696 56.8121725,69.4612745 C58.356594,69.4267691 60.9659425,70.1666288 63.6584527,66.2281809 C65.484461,66.6795346 63.5097886,67.442056 62.8897153,68.9397649 C62.7474422,70.248219 63.3381541,70.988126 64.1023168,71.7283817 C59.5944906,74.2715437 66.2688178,77.340683 62.1161073,82.0068836 C63.5246331,81.7863694 64.8675843,81.4787964 65.7257456,80.5275713 C67.0015656,81.5274604 67.90138,80.4680939 68.8154855,79.4869794 C70.561653,80.5901801 70.7492367,79.3654038 71.4800507,78.9520244 L73.4404682,80.5311503 C73.1255146,81.1327632 72.7702204,81.7042483 73.1774399,82.8451983 L68.6927603,93.1161868 C67.6401702,93.5493868 66.5875824,94 65.5349946,93.1692261 C65.6105929,91.221376 63.9524916,91.3626372 62.8849034,91.4181082 C61.7711349,90.2116296 60.6573641,90.9753635 59.5435955,90.924405 C56.5189265,89.0784314 54.8002658,90.5920265 54.006536,94.4849035 C55.0325953,93.7257518 57.0353482,91.2206045 57.0847161,94.0592371 C56.2588011,96.4776563 57.7563013,96.5824976 60.0759867,95.8686357 C63.9355891,97.3600977 59.4932991,97.9869525 59.3066032,97.8998014 C58.4474592,97.5302045 56.6481308,97.6667484 56.1249228,99.7392536 C54.1569803,100.675846 52.0147601,103.705204 55.6770962,106.859657 C55.5347779,106.824382 56.0203359,103.660603 56.6454199,103.310206 C58.5162938,106.484281 60.2621721,103.738423 60.6449029,102.608518 C63.0328062,103.651337 62.1795561,99.6241364 64.4843045,101.934914 C63.2625355,105.377173 63.0477501,108.369936 67.1711534,109.42623 C67.1163184,108.421484 66.0161044,106.815035 66.9829348,106.149401 C68.223757,106.176226 69.6447824,106.651648 69.8165231,104.017085 C71.4383953,103.928098 70.4860118,101.346222 71.57151,100.210174 C72.7379425,100.341931 73.4125458,99.9978118 74.7158206,99.7207783 C76.0046371,99.4468176 76.7345859,96.8131977 79.3515362,98.5459842 C79.7463691,97.6798654 79.8097456,96.7770748 78.5446134,95.7272958 C79.0860839,94.6948831 80.7103824,95.4474144 81.1521975,97.2880431 C83.0946621,95.2609085 83.2313846,93.8222249 79.4361573,92.221706 C81.6642388,90.2222946 84.1205768,89.4729756 86.1070439,86.1503082 C86.8899797,85.6074303 87.6540249,84.6179701 87.8390129,84.0750922 C89.6452497,83.3341707 90.259298,81.208255 91.3527957,79.6393262 C90.9557829,79.9579691 86.7172924,83.1119312 86.8123053,77.5384634 C88.2189516,77.0144456 89.3894098,76.3140381 89.7406873,75.0018452 C85.5074966,75.5707568 85.3604727,72.1448902 82.8713779,71.5854244 C83.3528763,70.0572434 83.1553864,68.8671188 82.5757554,67.8672567 C81.3610845,70.7107326 75.0577251,71.9826724 76.7643495,62.5257037 C78.0949389,63.2161594 79.9238388,63.5967655 80.4571246,62.433219 C82.0584007,63.1725838 83.6752352,63.9894111 84.8889843,62.7993562 C87.1944917,63.149353 88.7750113,63.052448 88.3050072,61.6915484 C91.8723372,61.7464098 91.4931237,60.6784659 91.4665116,59.7108373 C93.0630685,59.1516571 94.1778943,58.4554247 93.0121101,57.1103483 C93.6456612,56.5007316 95.3862216,54.3244063 93.6572775,53.922216 C93.933569,52.1655463 97.3124591,49.7130513 94.467302,49.5523205 C94.5222002,48.0851331 94.7595269,46.5480801 96.5163934,44.4290636 C95.6319634,44.073452 94.7104436,43.9024926 93.6937324,44.2054744 C95.3629937,41.1753981 91.9238287,37.9288029 96.0848142,35.4017902 C94.912246,35.1828552 93.7396756,35.1925079 92.5671052,35.6337162 C92.7561528,34.0801358 92.4481323,32.393676 91.8561598,30.8400957 C93.8259481,29.1281533 94.2320583,24.4402177 90.5066709,21.3235236 C90.7529413,19.4179691 91.7406525,15.3502543 88.8396823,12.4655761 C89.169024,10.6802182 88.5169642,7.73929963 87.8444009,7.27892088 C87.5876438,7.1031655 87.5150275,6.72763207 87.4723103,6.41233642 C87.172748,4.20117497 85.7443195,3.03848083 84.1770902,1.42842121 C79.5960717,-1.9217822 76.0106237,1.5089614 74.6364203,2.73598182 C72.3097678,7.33831958 76.6691604,8.51027254 79.5306597,7.57999053 C76.5839384,5.29550582 77.5151361,1.75744796 81.6491639,3.78471368 C85.1787152,8.33334066 77.8965522,11.1481801 77.191284,17.1620646 C76.0452669,23.4289169 78.1511044,27.9774876 80.9232431,32.3431787 C82.8329937,35.9583046 86.7492111,40.2893868 88.2969264,46.1657711 C88.7382717,47.3727199 87.4711492,56.8272726 84.9245605,56.2038145 C83.7605136,56.6059216 79.8844177,53.4183764 74.8478668,53.2413523 C72.258814,46.4692387 66.3999264,45.2514607 62.1557024,41.290918 C61.324666,40.4785921 61.0825546,38.0294376 60.8205157,37.8499998 C60.7631144,37.8106916 60.1988972,36.963831 60.1691856,36.9095859 C60.4055386,35.9438357 60.6577188,34.2872878 60.6352069,33.4563651 C61.3057009,33.3080269 61.8783717,34.3286026 62.4927115,34.8512437 C62.9825707,32.4590652 63.4439451,30.1245106 60.936676,27.7196448 C60.9847088,27.3874642 60.3298838,26.9192459 61.12203,26.9575463 C62.3285794,27.7129007 63.7030381,28.7813845 64.0708409,30.6534099 C65.0265001,29.1191687 65.2567468,27.5849275 65.5023327,26.0506863 L66.092525,26.304534 C66.0773981,24.8097764 66.1403093,23.1855003 65.5238008,22.6887939 C67.0675559,21.525063 68.6968719,20.3954146 69.2330922,18.8303774 C67.8986104,19.3184006 66.3681071,20.3529616 65.5162464,19.495373 C67.21615,18.5228696 69.0464415,17.5916811 68.5233329,15.9148513 C67.1160225,16.8890847 64.897402,17.6783305 63.8781245,15.4975532 C64.9834983,14.2773254 67.6250524,15.1225866 66.5139202,10.9595327 C66.1334101,11.7589643 65.1529054,13.4131502 63.6379582,12.7415028 C63.054132,12.3975887 63.4031324,10.6264456 61.1437511,8.88743912 L60.9341616,0.818226123 C58.0207393,1.32525508 58.0303246,4.17508723 55.2736337,5.26144126 C53.3284063,5.20192334 52.6810657,4.991667 51.1820452,4.87448025 C48.6766398,4.26413692 48.5488994,5.47897032 47.0566313,6.05446401 C45.358099,6.2820192 42.0870015,5.52416552 39.0258684,4.89787756 C38.0361602,4.69539108 37.0683968,3.95090858 36.1828282,4.36942593 C34.8441964,5.10490808 34.9182088,7.08203121 34.8101767,9.55139088 Z"/>
        <path fill="#FFF" d="M37.5 13.3747553L38.311545 11.0655738 39.2691432 11.14049C39.2166124 11.9892763 39.0789612 12.7576389 39.3442623 13.5245902 38.7618066 13.3833779 38.3469697 13.2933044 37.5 13.3747553zM39.9590164 13.7969991C40.1896608 12.7944259 40.6310355 12.7531061 41.017847 12.295082L41.8032787 12.5803672C41.4929968 13.1126896 41.5796143 13.5552331 41.6935125 14.1393443 41.4833205 14.060325 40.8059998 13.9631967 39.9590164 13.7969991zM42.4180328 14.7871562C42.7214203 13.9395492 43.3708927 13.6716101 43.5660345 13.5245902L43.9348883 13.5536725C43.6169676 14.0963715 44.1120594 14.8315256 44.2622951 15.3688525 44.0469285 15.2882928 43.1182068 15.0729324 42.4180328 14.7871562zM44.8770492 15.3196628C45.0521071 14.9042072 45.2991694 14.1369474 45.7404672 14.1393443 46.2522453 14.3247601 46.9278182 15.0321307 47.9508197 15.905073 46.6365586 16.2045711 45.77544 15.5684283 44.8770492 15.3196628zM87.6577249 12.9098361C86.2866373 14.6907777 84.3874124 15.8360898 82.8439224 18.1319096 82.0303068 19.7636457 82.292906 19.8747395 83.5316091 19.4824457 85.095361 18.3419226 86.5344026 17.1095548 87.6118789 15.6109081 88.1843421 14.8606101 87.7771779 13.6601341 87.6577249 12.9098361zM89.3538694 22.7550458C91.6156459 22.5725644 91.0965337 25.1671315 90.3264621 26.4386108 89.7019393 27.6198372 88.1072679 28.5679272 86.9918544 29.9822902 86.5998961 30.443987 86.1081515 31.7763712 86.0655738 29.1896253 86.192187 25.0918557 88.7275384 25.0877255 89.3538694 22.7550458z"/>
        <path fill="#D8201F" d="M2.45901639,17.2131148 C2.54506781,16.0201254 3.15766693,15.0917013 4.94612846,14.7540984 C5.9889454,15.2378374 5.43578901,16.6140165 4.86589938,16.5278144 C4.06360643,16.2742597 3.26131141,16.8706599 2.45901639,17.2131148 Z"/>
        <path fill="#D8201F" d="M7.59622389,5.92222104 C8.5130092,5.05758794 9.55603099,4.47892656 11.2386475,5.34920019 C13.5004168,5.99215501 15.1058387,4.82987982 14.1981176,7.41207705 L14.0592942,7.81243022 C16.8850282,7.57239079 14.6138575,10.9404031 15.9994733,12.1208425 C16.7494937,12.6320665 17.5107321,12.2141806 17.9881435,11.4165141 C18.4091348,10.713116 18.6188942,11.3746153 18.6196384,11.3537326 C18.6330931,10.9761385 18.5802745,10.6474554 18.7060636,10.4806433 C18.9024784,10.2201694 19.0959595,9.97445095 19.2889504,9.77723157 C20.0551548,8.97811644 20.6539851,10.0795477 20.3709877,10.8101593 C20.2974687,10.9999659 19.9320229,11.4291125 19.8894038,11.6524318 C21.4434885,10.5822136 22.4968178,8.96670636 22.5173225,7.2443935 C22.8785307,8.24195027 23.5465074,8.7268367 22.1659183,11.9962438 C22.1121622,13.0035335 21.7646089,13.4192125 21.3263478,13.6522307 C20.9187618,14.3055929 19.2606831,14.455334 17.9543661,14.7467448 C16.7985199,17.4963157 18.0846356,18.5093523 18.0170133,20.5284811 C20.1455996,27.0501859 27.4233159,32.3240025 31.4873468,34.1024853 C30.8903375,34.8653829 30.3618587,34.879371 29.6784174,35.146289 C30.0668408,35.3273903 30.8178931,36.076517 31.9672131,35.8863913 C31.5733089,38.4435049 30.9947833,39.4827681 29.9153539,40.8764997 L29.8413673,42.8030555 C28.7636239,43.4750074 28.0788315,44.8336985 26.9465991,46.2628962 C25.8453858,46.8876641 24.894252,45.2458827 23.8733041,44.6584369 C23.6969669,46.4665845 22.8506072,46.363346 22.1659183,46.7213115 C22.7582606,44.1832969 21.0278252,42.7240043 22.8488717,39.9596646 C22.0018151,41.3929817 21.0951462,41.6048027 20.858421,43.5157111 C19.2638057,41.1011318 21.1327049,40.537742 20.9138362,39.3866437 C20.8280405,39.5870003 19.9705415,39.7956184 19.2834314,42.6513542 C17.2827182,40.2475942 19.6242629,38.4320587 19.6617519,37.0945603 C18.6292489,38.058704 17.2532459,38.3718326 17.6775914,42.097034 C13.975398,37.5061516 17.6454033,37.272022 17.7267142,34.9170802 C16.9318805,35.9175025 15.5240064,36.3006942 15.4501997,38.0270767 C13.9940369,35.2021669 16.1258649,34.587408 16.6992873,33.07738 C16.0163316,32.9081935 14.9948959,33.8165815 14.3119425,35.471706 C13.5664092,32.6539283 15.7048983,31.9886694 15.9177848,30.165832 C14.7415844,29.9195499 13.5653841,30.0965408 12.389186,31.6556857 C11.8049323,29.0144191 14.275836,28.4630912 14.0247704,27.0118769 C13.9223816,26.4200558 14.3705117,26.1224567 14.3119425,26.3217675 C13.8621959,27.8522593 10.6117972,27.7609968 10.4727196,25.9873035 C11.8750971,25.8181827 12.9867731,24.8491092 13.9704658,21.5083919 C12.689298,23.1009002 11.3589535,25.0777974 9.2143452,23.3667882 C10.9065318,22.8809851 12.5083635,21.1558882 10.441867,18.5721111 C9.16334075,17.442441 8.22963188,18.4836417 7.61930943,18.4274695 C7.10767773,18.2557117 6.9871289,18.1225097 7.30261106,17.7044744 C7.6088064,17.2829058 7.90662539,16.7737348 8.10696985,16.1306688 C8.19806883,15.4645068 8.06308732,15.3997154 7.67373996,15.9436554 C7.19273836,16.7068859 7.00353539,17.8713159 5.98409372,18.0826321 C5.65312453,18.1197211 4.34662093,18.3391653 5.20588235,16.8096196 C6.42693865,15.525731 7.44521132,14.2904526 4.94738004,13.8980691 C6.01828253,12.0458995 6.84307638,11.1991839 7.73461125,13.6812278 C9.62371396,13.4339363 11.143774,14.6608376 12.2630799,16.3512018 C12.4926696,14.0474254 9.93210343,13.6860105 12.3769047,11.6430814 L12.4494795,11.132489 C12.0531069,10.6171772 9.42262988,10.5585175 10.8971708,9.01653407 C11.7149618,8.75137482 12.3296231,8.22925455 13.2875101,8.21430443 C12.5122976,7.21148739 11.7032336,8.17052015 10.3864518,8.582847 C9.65820401,8.44453404 9.53484508,8.23655646 9.5279682,7.64430077 C11.0200149,7.6325308 11.3548553,7.16152841 11.8077761,6.72445068 C10.7886941,7.25253741 10.3500891,7.05006455 10.1003903,6.60984741 C10.1981908,5.44173929 8.43372839,6.14862994 7.59622389,5.92222104 Z"/>
        <path fill="#1B1A1C" d="M18.4682232 27.340363C18.4674037 27.4191871 18.3415246 27.6320869 18.6555912 27.6639001 18.7532681 27.6669691 19.068148 27.4642429 19.0570931 27.0491803 18.8710518 27.2081781 18.4867064 27.1976842 18.4682232 27.340363zM19.1470751 29.1956122C19.1537508 29.1860205 18.8059059 29.7034504 19.4368917 29.4266496 19.4019541 28.5928434 20.6744571 29.1675013 20.899131 28.6525012 20.9331832 28.3887382 20.6101376 28.1583326 20.5596053 28.3486109 20.4258634 28.8912848 19.5481141 28.2425852 19.1470751 29.1956122zM19.7080142 30.4362665C19.5803709 30.8073068 19.8169677 30.7812093 20.0452789 30.6471777 20.7348319 29.6084976 21.9264237 30.174527 22.7026901 29.1374074 22.8663644 28.8376366 22.5191267 28.8651555 22.4236727 28.9523747 21.7451687 29.7530289 20.6014224 29.1740909 19.7080142 30.4362665zM19.1019833 32.9794891C19.0523322 33.1076861 18.9536644 33.2564132 19.4115946 33.1720274 20.5615119 31.6945044 22.4471214 31.8592558 23.8868532 30.9165796 24.0075785 30.7913596 24.0422681 30.7021726 23.7461204 30.7515461 22.2151007 31.7780776 20.3939849 31.1734279 19.1019833 32.9794891zM19.714473 34.7641557C19.5666341 35.0877493 19.8427521 35.095283 19.9788586 34.9518285 21.1121118 32.8272935 23.2304178 33.4854617 25.1079729 32.2171705 25.4053761 31.9063948 24.9290981 31.9540734 24.8700254 32.0026857 23.2078051 33.1367536 20.8832395 32.7830077 19.714473 34.7641557zM20.3755081 35.8529175C20.0704319 36.3432594 20.6406633 36.3198803 20.7684841 36.1923921 21.7630733 34.1554813 25.0237867 35.9637693 26.9862834 34.1852164 27.0709978 33.7947176 27.1291156 33.6926194 26.7543269 33.9628568 24.5868549 35.5768602 21.439864 34.0776692 20.3755081 35.8529175zM22.3837932 36.4198876C22.1895179 36.5011078 21.92873 36.4343885 22.3837932 36.7818826 25.297584 37.1784241 27.135961 36.3818327 28.8250439 35.2821925 29.0044957 34.9613283 28.7993303 35.0249077 28.5728279 35.1098127 26.8509568 36.1348713 24.9763582 36.8965186 22.3837932 36.4198876zM22.8407575 38.9509745C22.7404412 39.081054 22.578781 39.4446342 23.2197039 39.3178245 23.596547 38.1909325 27.339037 39.8808864 29.3880603 37.2186184 29.752736 36.6889449 29.1767524 36.9476341 29.1143807 36.953667 26.8126491 39.5551109 25.1424892 37.8010516 22.8407575 38.9509745zM24.6274645 40.8932214C24.5180568 41.3523207 24.6692413 41.1517256 24.8238888 41.1027188 25.7528698 39.6188749 28.7743432 40.8732458 30.7362677 37.8345885 30.7491937 37.3654695 30.675797 37.4847244 30.4809175 37.6250934 28.8898769 40.5580273 26.2211416 39.3280137 24.6274645 40.8932214zM24.6354815 43.1936945C24.5222101 43.6145771 24.6380624 43.6803539 24.7981712 43.6354266 26.5937389 41.8717827 29.498219 42.9449131 30.6143021 40.3128486 30.6276846 39.8827805 30.8567397 39.9152854 30.654978 40.0439696 29.2721177 42.3870554 26.3261105 41.7395742 24.6354815 43.1936945z"/>
        <path fill="#D7201F" d="M36.7444516,4.76748586 C39.712592,6.68666751 43.3753055,6.12932111 46.6011722,6.765658 L48.7031721,5.42044001 L54.6851577,6.04977507 C57.0983089,5.05808782 58.073046,3.58908156 59.0920013,2.1347472 C60.6221322,5.04657404 59.0085696,6.91671587 57.7723194,9.36954834 C63.2554521,7.88213443 59.5902488,16.4176868 65.8194478,12.6190199 C64.8337866,13.2910924 66.0748085,14.4899107 62.2160202,14.8369592 C64.114182,18.1908579 65.6972069,17.2730284 67.0205896,17.0789879 C66.8667785,17.7718882 66.5939732,19.0686782 62.8165922,18.7231412 C63.8132317,19.688643 65.0199338,20.4260195 66.8220521,20.5167644 C65.7125684,21.1099297 65.6406142,22.3228146 62.5163062,21.7125125 C63.867931,22.4890412 65.2143955,23.0454812 65.5554586,25.794487 C64.3006116,25.2952583 63.2615072,24.2233007 61.7897901,24.2998013 C62.8335939,24.966343 65.095939,25.1939577 63.9470067,28.8663126 C62.8130156,27.5204468 61.7439068,26.0361728 60.1140226,25.7481642 C59.9306951,29.1895665 62.3543546,30.5201578 61.6120387,34.0856655 C60.5409101,32.5160919 59.4595623,31.078775 58.3157204,30.4502429 C59.175894,32.0561932 59.8568521,33.6606454 59.2763071,36.1271442 C57.4075375,35.2474098 57.960186,35.107787 57.3320384,34.6180657 C57.8349243,36.2505906 59.645217,36.7675139 58.3123087,39.9665129 C57.3285296,37.9344247 55.0709586,37.6613262 54.7166375,35.9304473 C54.6197783,35.4572781 54.9412369,35.0675619 55.1937418,34.310797 C52.6997707,34.3415372 55.1343881,38.6120191 53.5162029,39.7745439 C53.1508764,38.2035061 51.144597,38.464614 51.2761149,34.373809 L51.0676722,34.4218322 C50.6320884,36.2024257 50.7831024,38.8199283 49.2779986,39.935071 C49.3366337,37.8375911 47.2060506,38.4330888 48.5429286,34.271177 C47.3817189,35.7422885 47.4937745,37.7083822 45.3684738,38.5158918 C45.5114716,36.7250351 44.9367286,35.128147 46.1507443,32.9226549 C43.0439442,34.6355175 46.7458193,38.9081969 43.0530765,40.0341763 C44.7625719,39.5202152 45.9387364,39.5070819 47.5415783,37.2180717 C48.0019203,38.9182037 49.0162032,38.9965351 48.2105685,41.4592777 C50.8315591,40.6101013 50.8015321,38.2191449 51.2608754,37.1457636 C51.7554763,39.1588054 53.0819159,38.8321799 53.3333996,40.8222548 C54.5906889,40.0617608 54.512508,38.6946398 54.7814746,37.5768723 C57.4912991,39.236091 57.6662014,40.2301871 57.3494129,41.9389449 C58.3498143,40.9274735 59.4391195,40.1734482 59.6291619,38.147262 L61.0148784,41.5918312 C64.981825,44.4645802 71.2355134,48.2846843 73.7770148,53.6987841 C79.4619589,53.6156932 81.3771608,57.5981148 84.7822497,56.7953106 C87.1295697,56.3463206 89.7342069,51.944673 88.793602,46.5242934 C87.8592375,41.438081 82.4947014,34.0940056 80.6888349,31.1578802 C76.3077006,22.4500105 74.6467749,18.8033328 82.208733,9.1519247 C84.2422424,2.82460662 80.0347407,2.53867427 79.9753238,2.51920274 C79.4017309,2.33123107 75.6599417,1.9344021 77.1986943,6.88104768 C72.2458582,6.9997707 75.1022886,2.4092211 76.259009,1.67302813 C77.7736496,0.709038722 81.796005,-0.656125155 84.6188996,3.08663871 C87.4753729,7.87040473 83.9954808,10.6124784 82.7855817,13.6412111 C81.4349261,16.8152866 80.4408759,21.4162987 82.0664719,24.6074974 C82.9064986,17.4147812 85.9612158,20.9768881 89.3602587,15.4112152 C90.098781,21.2818491 83.2389829,21.1507936 82.6354376,26.9439123 C82.8083923,27.1832207 82.8580126,27.7908732 83.236954,27.4149942 C82.7287224,24.4102427 86.9058831,22.5659782 89.1442788,20.553456 C88.4849044,24.0281221 84.9634241,24.9810822 84.8085262,29.4428741 C85.0294044,30.8824627 85.6777373,32.0028978 86.8536848,32.7294016 C86.7005086,28.5630295 90.6863368,30.0785992 91.6703555,23.8810723 C94.1644373,30.6858828 87.4099845,29.6447801 87.440007,36.3604314 L87.8961963,36.864325 C88.3846494,34.0860051 89.5071877,32.491256 90.9491896,31.4928166 C91.6952854,37.8034569 88.1128314,36.3270057 89.5129017,41.6364423 C91.1105967,41.8102533 88.2650474,37.9391098 92.9952881,36.2735079 C89.8105103,41.0138459 95.34435,41.0733311 90.5930045,45.6274829 C90.5893195,45.737913 90.2296414,45.9369424 90.6499339,45.9418547 C91.9570921,44.9361547 92.9757988,45.0790817 94.057377,44.971661 C91.9370582,47.1846362 93.0622423,49.6015689 91.254096,50.9950124 C91.9474943,51.0550532 92.6652214,50.8971532 93.4771326,49.8953827 C93.3288501,51.1180382 92.9212486,53.4446533 90.8932906,54.1471893 C90.2504412,55.1899002 91.8421444,55.0377605 92.8899586,54.6448053 C92.3778793,56.0412719 91.5217613,56.7527508 90.2927185,56.7217273 C90.3037962,57.5249296 91.4114611,57.6003573 92.060709,57.980024 C91.2457228,58.3732918 91.3082848,59.2804465 88.6282433,58.5815519 C88.8119662,59.3576826 89.3791922,60.0574565 89.9292244,60.7606539 C88.9064191,60.6294386 87.3389771,60.6832806 86.3890071,59.8269943 C85.9748037,60.6130845 86.5945939,61.284804 86.7849571,62.0040202 C84.2555614,61.8835901 83.1771282,61.0409341 82.2831454,60.1064694 C82.3643516,60.9852366 83.2750221,61.6295245 83.838667,62.1969519 C81.1094504,62.8585611 79.5076365,61.0119934 78.581582,59.6775267 C78.3657241,60.7833935 79.1369192,61.1873878 79.4192297,61.9390154 C77.5435328,62.2861539 75.4991085,61.2105166 74.5277287,58.4817786 C75.5331436,60.273328 74.9172146,62.5515713 74.5713865,64.8244614 C73.6805894,71.6630012 80.0625309,70.4510587 82.0739684,69.6811495 C81.5281296,71.130376 80.5054328,72.1057227 79.4173612,72.7858654 C80.6877639,73.2575749 81.1443464,71.6215683 82.4422502,72.1670748 C84.5235226,73.3066732 85.440752,76.0466033 88.0405768,75.5211937 C85.5691949,77.4759963 84.2752856,75.9900624 82.7205006,75.0309574 C86.8381675,78.9801039 84.0760002,81.2880954 88.750299,81.4759551 C88.0711641,82.7718206 86.5731231,83.3689175 84.2870095,83.2935573 C87.7389713,84.6162853 84.3115169,85.4153535 82.0768853,86.4114829 C82.7477983,87.1843252 83.612782,88.0491765 79.6966373,88.3765105 C79.6771932,88.3533615 79.158686,88.8253881 79.8164133,88.9731216 C81.6076617,89.3754515 80.2524128,90.3766372 78.1752254,91.1046885 C74.0975109,94.7726033 80.7315957,91.1095153 80.5764832,95.2969559 C79.529157,94.3840184 78.3444341,94.2461703 76.9530737,95.2740003 C75.6683036,95.9123255 77.9654926,95.8085126 77.8959492,97.1931122 C76.8631327,96.986476 75.0822548,97.6337914 73.8195858,98.6731824 C73.0743057,99.2866739 71.1104866,98.6478584 70.7961948,99.1571186 C69.7057779,99.7843957 69.5253853,101.227016 69.5730174,102.873938 C69.0144538,103.846352 67.7376525,102.671254 67.3198499,102.341873 C67.1106278,102.725267 67.2133387,103.160418 68.3718756,103.770749 C68.2940877,104.23116 68.6165585,104.75798 67.9214454,105.115967 C66.3234973,105.261568 66.3625166,103.076841 64.652662,103.570653 C62.2956155,102.359082 67.445577,100.167445 67.2898545,98.115033 L65.0687339,100.332972 C64.9849181,101.096523 63.2143361,100.180878 62.2160202,100.034035 C62.0633862,101.229149 61.2959733,101.506235 60.5731377,101.849892 C59.8391522,101.822944 60.1872578,100.718764 60.1140226,100.034035 C58.8652307,101.601519 60.033754,102.965412 58.3123087,104.069686 C57.5892879,103.978017 55.7500437,103.29291 57.8618809,101.939453 C58.4736729,101.425414 58.0047702,100.43235 57.4666697,99.2230749 C57.0911715,98.830754 57.096481,98.4858198 57.8955455,98.2396603 C61.1663623,98.1605888 61.6769301,97.298675 65.9695897,96.7457281 C64.0870899,96.3467586 62.032905,97.0587391 60.4143086,94.9521049 L60.7940092,93.9058245 C59.8166331,94.0321904 59.5570857,95.286506 57.8618809,95.1015726 C56.6808904,95.3608181 57.0219444,94.7782781 57.1043436,94.3387911 C59.0077924,94.3433075 59.3299943,92.7736755 59.8137366,91.3648607 C61.3162105,90.5301715 61.3448209,92.4203674 61.9157364,93.3079516 C62.9017501,89.739169 65.1919757,95.5708731 66.9963918,94.496907 C73.7683795,90.1737617 70.8476632,82.4680719 74.5742582,82.8538003 C73.709123,82.3159007 71.9343409,81.0166231 75.2077153,79.3369635 C73.9080989,79.1479815 70.0928531,80.8247058 72.1254428,74.7738508 C69.5947051,75.962885 71.7024075,79.1864387 68.4134457,79.1152305 C69.6265983,77.1166108 68.3447564,76.4806788 70.0234453,74.026508 C66.9633191,74.7132815 69.8095462,78.7294324 65.9472581,80.012041 C66.985409,77.8401726 65.6540846,75.4933708 67.4865281,73.1828107 C64.019424,73.5278866 67.1381198,77.6711209 63.5673061,80.6099139 C65.2325224,78.6443803 60.7977575,73.2722623 64.918592,71.6350096 C64.6073842,69.9585147 61.44769,69.4973204 64.7926457,66.2609348 C61.9154472,64.044642 65.4629058,61.6634383 62.9220686,57.6331442 C59.0325957,53.8014072 53.5198066,54.3960727 50.3547418,52.2040984 C47.7331344,51.5025026 44.1442977,52.8336629 42.6974608,49.6631324 C44.2174765,48.2734202 46.5211318,47.6638289 46.8549265,45.0932248 C45.1052302,47.4863786 42.748805,48.6715238 40.595461,50.2610075 C39.3747959,52.4000598 40.6941593,53.4855194 41.068225,54.9630862 C37.4606807,54.9844808 38.5145071,52.7784669 38.3433192,51.157818 C36.9887595,52.4714254 34.8650674,54.200118 36.5341698,57.2141543 C33.9788275,56.9094632 34.5418465,54.4163607 34.7398938,53.5493142 C32.8426787,54.510918 31.1413532,55.5935616 33.4302368,59.1417661 C31.4714764,59.1089724 30.3655806,58.2271485 30.7586318,55.8531063 C28.9951465,56.9350234 27.7839822,58.2816832 29.9471047,61.2457012 C28.4696511,61.1105409 27.0346103,60.8604992 26.9500873,58.466214 C25.2418436,59.6744767 25.8244175,61.5871559 26.1167821,62.6441853 C24.796201,62.5533414 23.9305259,61.3796807 23.5083921,60.1956669 L22.1841192,61.1851499 C21.8189328,61.9715505 22.1095532,62.3662375 22.2144241,62.871872 C21.4627002,62.8804258 20.7869341,62.3280772 20.073188,62.2802722 C20.3965219,62.7386797 20.9046676,63.0131052 20.7577996,63.939601 C19.8019281,64.1179059 19.2948737,63.4026078 18.6113557,63.0386519 C18.9989279,64.1893818 19.5053091,65.3674015 18.6204564,66.2258132 C18.0940075,65.4360928 18.4059677,64.3681568 17.0230461,63.862646 C14.6677189,63.0852378 15.2075772,68.0833841 12.5187626,65.8057369 C12.5316026,68.2442306 10.6169519,67.1402599 9.44704139,67.4050227 C9.4495764,68.0591397 9.81239498,70.2705518 8.46136435,69.8466811 C8.02079409,68.845781 5.26596752,68.2490979 6.03082508,67.7638796 C6.46055489,67.0469733 7.00693368,67.0267955 7.53316568,66.8862933 C7.80993844,64.5070891 8.67936639,65.3538656 9.29047386,64.5507646 C9.87401477,63.7838872 10.3259022,63.0294908 10.3681479,62.2888147 C6.12253062,62.4376931 6.49564741,64.3493308 5.26506603,63.8697064 L5.23418045,62.1446395 C4.81589886,63.314319 4.26190148,64.8025944 3.06581614,65.5760462 C2.55826009,65.4120913 2.33094267,65.0090102 2.53161083,64.2407293 C3.04843933,63.2462598 5.38820618,63.3055201 3.09065565,60.684232 C2.98781141,60.4899958 3.4236483,60.2260966 4.27929184,60.5850727 C6.57368378,61.2168077 8.12579377,59.6623984 10.2248203,60.0890739 C10.4331364,60.0252724 10.7180813,59.6974233 10.2212686,59.2549088 C8.84352766,58.5370128 6.82910097,58.1189743 8.00705938,57.2179555 C8.93674924,56.99046 9.09408043,55.4482011 9.42637042,55.3608345 C10.1428639,55.1724485 10.4874155,56.0392768 11.304216,56.6350085 C12.6567988,57.6357668 13.9746935,58.7199826 16.1934824,57.636815 C21.5093924,54.1492159 22.3824669,50.7239607 27.1837242,48.7737083 C27.5342586,45.2289587 29.9973712,44.2208026 31.9872792,42.5128523 C32.8466575,41.3764883 33.9333848,40.2401264 34.1993013,39.1037624 C32.8539191,39.9459955 31.5085391,41.972681 30.1631569,41.2616384 C32.8679611,38.3598339 30.6982366,36.5500725 35.1903217,34.4173405 C33.3972432,34.1074087 33.0608389,35.571361 30.9247429,35.039658 C33.4228735,34.0490841 32.3819978,30.5039881 36.2556212,29.965353 C36.3851441,29.9473435 36.2565453,29.3561125 36.3149861,29.393913 C34.8998278,28.798955 34.2017053,29.8351814 32.4958068,29.7309164 C34.3081893,28.4226217 33.7387492,25.9670092 40.2951772,26.9439123 C40.8057563,26.8480953 40.2182976,25.7252851 41.4050563,25.7043493 C47.2591955,25.6010762 52.0801544,22.855604 52.5030361,19.4500476 C51.2581868,20.6298464 50.5511239,22.4214948 48.2350307,22.3825135 C46.9069575,21.0247426 44.2000951,22.2747847 43.0540774,20.6141715 C42.8892338,20.3753107 42.5251839,20.63181 42.3625206,20.7070465 C41.6353403,21.0433909 40.2794859,21.14031 38.9616047,20.7628025 C38.5343873,21.9089327 37.887392,21.9262877 37.4601769,22.4626578 C37.5683374,21.6630588 37.1920824,21.0926557 36.7883014,20.6775727 C36.0625129,19.9314647 35.9262684,19.2368144 36.8636333,19.1266677 C38.5964364,19.1038515 41.4750267,18.9427554 43.642546,19.3600044 C46.2637693,19.8645907 48.0967935,20.3341522 49.0948338,19.3210163 C50.4145676,18.0948295 49.5183481,16.3054818 48.881895,15.8155109 C47.2676275,14.3687967 45.7161524,12.7017801 44.0390879,12.0202945 C40.7688292,10.7428051 38.4816649,10.1380923 36.3914635,10.2619369 C34.5684935,10.0989109 33.8166703,7.49760489 34.9214319,7.40159902 C35.7892015,7.49388242 36.344324,7.88579167 36.0648265,7.1852147 C35.2270455,5.30628516 34.8742563,3.92026176 36.7444516,4.76748586 Z"/>
        <path fill="#D8201F" d="M32.7943185 70.2145192C36.4504384 64.4929502 35.834712 65.7598554 38.7788767 65.579184 43.2091065 64.5522215 38.7065072 62.6549686 44.3328967 63.1741927 46.1668389 62.2009658 45.4745439 60.9577396 48.1759764 60.7470676 53.5332382 60.5826338 57.8197268 62.580557 63.0308198 60.2459016 63.637422 62.0652719 63.0953863 63.8846422 63.125872 65.7040125 60.6096935 70.2600364 58.075047 67.5500021 55.3079938 69.3062673 52.2003259 70.8841229 56.404314 72.7642895 55.8938386 75.3528678 53.8314602 79.2822075 56.6704643 78.9919801 58.164527 79.2459859 56.3064247 81.1106024 54.8216401 80.8505056 53.5523282 79.3640538 51.9545778 79.8154478 52.9608343 81.9070657 52.8006092 83.2639348 51.8352523 83.156065 51.0084444 82.568209 50.3379499 81.438825 50.2783856 83.1222216 48.0421195 83.1291591 49.1215351 85.8743133 47.8038328 86.0000868 47.120092 85.2379036 46.5395932 83.7583401 43.8453394 86.4894289 44.9073729 88.0727933 45.2349586 88.9188247 42.5893553 89.4176998 42.789369 87.1063069 42.5977261 86.4812418 41.1092425 87.4035502 39.3908702 88.2257347 41.4763658 90.70458 37.8886833 90.1782281 38.5159571 88.8174669 38.4452595 87.5948809 36.2177037 88.870486 36.0880617 91.0260084 35.9136446 92.4903331 32.6735361 91.1567264 34.6203717 90.0064806 35.2414465 88.8093672 33.9475877 88.5180134 34.033803 90.8755124 32.8204152 91.5494895 32.6551111 90.7056303 33.113289 89.4914933 32.2811645 89.0436532 30.9598402 88.9459568 29.0096494 88.4877529 27.9230598 90.6393923 27.7547557 91.3489528 27.7908454 94.5972951 26.205287 92.7879593 25.7401003 91.830914 25.0726871 91.4275095 24.1004751 91.862489 24.6300089 92.4032333 25.8048704 91.9219641 25.6592061 93.5320239 25.5634321 94.3823302 24.5087536 95.090471 24.3837337 94.3821779 24.0532115 92.5096207 22.4834988 92.7973758 22.2323595 91.4486445 23.4056915 90.8014345 25.5050918 89.9094313 25.358518 88.159387 24.0820457 87.292608 23.1373218 87.9748304 21.8608494 88.2141147 21.5314584 88.3528608 20.2410361 89.3724894 20.0468163 88.5328917 20.7598891 87.4432338 20.4278081 87.043251 20.3021207 86.5070728 20.0748406 87.2117806 19.7469631 87.9164906 19.2254834 88.6211985 18.305854 88.9549859 17.7312307 88.7146065 17.8413279 88.1747602 18.801479 87.6915427 19.1462046 86.8602351 19.0751405 85.7937546 18.0218579 83.8237674 19.2818306 84.0354762 20.5193106 84.6325717 21.1701766 84.9466214 21.6548381 85.565226 22.1401352 85.6001084L26.1412975 85.3473141C25.6661675 84.7774962 25.1555224 83.28945 24.3472684 83.1311252 23.3940312 82.9443987 23.0790674 82.8903876 23.3729864 82.0273125 24.6934442 81.5386444 24.3829192 80.5887225 24.7882046 79.8412384 24.2920072 81.0266355 23.4691132 81.4575013 22.5330475 81.6269915 21.015189 81.5038 20.9827463 80.6144079 22.0820166 80.1081183 23.6589236 80.2072592 24.6304569 79.4075869 25.3255889 78.1975345 27.9485117 77.0222347 27.4929401 80.2291489 26.7892676 80.7648591 28.0713552 81.7574609 29.4032902 83.342104 30.5478604 82.7012761 31.8576307 81.8465874 32.6150645 80.9311538 35.1463943 80.210813 38.9443437 79.6089051 41.0979803 78.0682856 41.8478758 76.3281549 42.7071016 73.5622285 40.5217168 71.961939 41.199908 69.59037 39.376366 69.7415647 41.6636332 71.3525852 37.8681136 71.7592234 38.3257689 71.0491635 39.1982681 70.8676367 39.2004875 70.3506744 39.2106117 67.9925528 41.5172179 68.9141245 41.9031665 67.0673108 38.1708469 68.4985154 38.7120026 66.9887833 37.1696446 67.2063234 35.2653329 67.4749142 35.1183338 69.9965335 32.7943185 70.2145192zM7.61382985 54.1759735C6.82573865 54.1743252 7.79865939 56.7459913 5.97387096 56.8595379 5.43497135 56.8107635 5.44713404 57.4175207 5.70530184 57.5587465 6.12076619 57.820187 6.58096344 57.8711981 7.10178598 57.6370408 8.4378988 57.3210715 9.25987243 55.2983196 9.21991806 54.9348901 8.75043889 53.9515617 7.96472049 54.0507167 7.61382985 54.1759735z"/>
        <path fill="#D8201F" d="M3.68852459 55.942623C4.44040187 55.7536611 4.77897015 55.1966439 5.85973235 55.7842952 6.50556033 56.0115919 6.99558063 54.5491732 6.64602005 54.1415774 5.84945067 54.0117115 4.06607134 54.0618048 3.68852459 55.942623zM.614754098 65.1639344C.710225176 62.1579464 1.8950848 62.0596519 2.81786531 61.4754098 3.45174096 61.5285681 4.05918115 62.4217996 3.41090038 63.2936975 1.33759174 63.1636203 1.20002325 64.3115697.614754098 65.1639344zM5.78977366 68.8654122C5.51594224 70.3780136 5.10059319 72.6920115 6.74318207 73.1557377 6.87285587 72.1563805 6.29336627 70.7896228 7.37704918 70.1845009 6.80462102 68.9782666 6.36220181 68.7954083 5.78977366 68.8654122zM20.9016393 77.2620195C21.9449939 77.3953349 22.5821614 77.6266682 23.1239565 78.6885246 23.5269661 78.4712567 24.3203296 78.3839585 23.8090504 77.2220955 22.713322 76.6406094 22.1267015 76.7912466 20.9016393 77.2620195zM14.1393443 89.1393443C15.1127531 87.579956 16.1577442 86.9039343 17.2777154 87.1532155 17.6264752 86.5526427 18.318375 85.9194967 17.2777154 85.4508197 15.6528867 85.5816203 14.4490994 86.5117971 14.1393443 89.1393443zM20.8507069 97.7459016C21.1801532 96.9582204 21.0529282 95.1206857 23.3606557 95.0152712 23.2006996 93.9996757 22.2623358 93.2682798 21.6066572 93.4789275 20.8412539 94.2057866 19.5307379 95.013183 20.8507069 97.7459016zM54.7131148 92.8962844C55.4302228 92.2961352 56.3490307 91.8848327 57.136613 92.2486883 57.5966568 92.4612251 57.9727491 93.4936669 58.3411745 93.4406523 58.7913397 93.1366784 59.4985447 91.8772112 58.5362732 91.2360063 57.7104293 91.0357802 55.8471047 90.2914116 54.7131148 92.8962844zM54.288592 105.122951C54.2045571 103.577451 53.3928545 101.728886 55.9175455 100.204918 57.6324887 100.20623 57.3083167 102.137232 56.5973177 102.135552 55.8863667 102.232048 55.058168 102.96609 54.288592 105.122951zM65.2710364 108.811475C64.7138967 107.932213 63.5558486 107.368333 64.0574703 104.905831 64.7797866 104.052882 65.2951991 104.707799 65.7786885 105.595381 64.9514708 106.341664 65.2697761 107.456194 65.2710364 108.811475z"/>
        <path fill="#1B1A1C" d="M43.3339816 42.4180328L44.122458 42.4570531C44.3586637 45.2698352 45.0058407 48.2687115 38.7348818 48.1349434 37.8159244 53.2240787 33.7103698 49.341607 30.7377049 53.4836066 31.8042215 49.5347948 38.9982916 51.7565284 37.932271 47.3496836 43.8842328 48.3017394 43.9986604 45.6034806 43.3339816 42.4180328zM43.647541 49.7372205C48.4645695 51.5706728 50.0298477 49.2826742 51.7807013 47.3360656L52.2540984 47.8622526C50.530839 49.6186924 47.600154 52.8219898 43.647541 49.7372205zM73.0762518 58.378207C72.5856045 60.0596504 73.6425724 60.6306138 72.8290138 63.3982542 72.5089894 64.4869494 71.8692949 65.7657038 70.4102006 67.0081967 70.1177138 66.98149 69.9640957 67.0130627 70.1909354 66.6037114 73.8265772 62.5134182 71.304118 61.8121004 72.3214605 59.310247 72.4088911 58.9007511 72.5391348 58.8073486 72.6187872 58.4610401 72.6645446 58.3018376 72.7222453 58.1542961 72.7766278 58.0331745 73.0638929 57.5562294 73.2786031 57.8266047 73.0762518 58.378207zM73.7704918 94.9327707C73.7751908 95.1943206 73.8019704 95.4217708 74.1247403 95.1920614 75.6785668 90.8172844 77.7515141 92.2085089 78.6415512 89.0529465 79.9008084 88.2077684 80.1393973 87.5377486 80.0645461 86.9215178 80.7057085 86.2700008 81.9465222 85.8408596 81.9901878 84.1639796 83.2824811 83.6334917 83.529523 82.2534727 83.5797469 81.7860717 83.9259611 78.5641561 80.7998139 78.7445905 81.0688373 76.2432785 80.9338663 75.9367249 80.9159691 75.5096252 80.35834 75.6382646 79.8380626 78.8941598 85.1317934 80.8065176 81.5570412 83.7773107 81.4241586 83.8877422 80.5934394 84.3914297 79.7700561 84.2919929L79.645274 84.8092315C80.1169158 84.9284142 80.5957305 85.0180541 81.1772644 84.6846252 81.1216894 85.6526652 79.9038617 86.4209514 78.6005799 86.3828729L78.4115473 86.7959838C79.133769 87.4755805 79.3120068 88.3794154 77.5972889 88.6027916 78.2247376 91.533873 74.3745645 90.9645218 73.7704918 94.9327707zM46.7413805 9.07803662C49.561508 9.54396822 50.0205828 6.45609477 51.7744789 7.65604108 53.3616812 9.89451268 51.8829388 10.1041732 51.8938879 11.3097986 52.5403589 11.5864945 53.1452888 11.9176209 54.0983607 11.7925798 53.4063194 12.3501385 52.4053539 12.3445393 51.5220322 12.432157 49.3901409 13.9429649 47.1865188 11.4960987 47.3788675 10.2657648 47.127232 9.89870347 46.6136997 9.7246712 46.7413805 9.07803662z"/>
        <path fill="#FFF" d="M87.0374846,8.60655738 C86.3782179,12.6989806 83.7747768,13.4408134 82.3770492,17.8278689 C84.4635831,15.368865 85.826779,16.0507535 87.9056044,12.3360671 C87.9504455,11.1771537 87.637426,8.93204261 87.0374846,8.60655738 Z"/>
        <path fill="#D8201F" d="M50.4098361,8.09156157 C50.9317572,8.48101061 51.5030232,8.99737838 51.8317565,9.83606557 C52.1067395,9.55164983 52.4448047,8.86834477 52.1229479,8.41730497 C51.6092908,7.89596647 50.7513524,7.94310518 50.4098361,8.09156157 Z"/>
        <path fill="#FFF" d="M50.4098361,10.0404339 C50.3133907,10.1903216 49.8777229,10.8383424 49.806701,10.672289 C49.6586933,10.3262292 49.0792461,10.0556853 48.7110161,10.4883504 C48.2073777,11.1243311 49.0117646,11.7824793 49.4978617,12.0467689 C49.6110034,12.3032985 49.5478734,12.6102448 49.510457,12.9098361 C48.4162094,12.6885444 46.6706855,10.3629205 47.5986507,9.7162188 C48.6361177,9.65868129 48.7306725,8.41134839 49.6644284,8.63289476 C50.3997594,9.0332625 50.3694219,9.46339172 50.4098361,10.0404339 Z"/>
        <path stroke-linecap="square" d="M57.1721311,11.6803279 C60.4245754,12.5062158 58.656536,13.7147572 57.3076939,13.4992946"/>
        <path stroke-linejoin="round" d="M57.9388966 13.5245902C60.8382808 14.5334389 61.2397506 16.1466884 57.7868852 15.9702603M57.9183518 15.9836066C59.6858147 16.9009551 59.3805661 18.2629183 56.557377 18.442623M57.172425 17.8278689C57.659683 18.3723069 58.7317418 20.3132895 55.942623 19.4571621"/>
        <line x1="55.219" x2="54.822" y1="20.902" y2="22.746" stroke-linejoin="round"/>
        <path stroke-linecap="round" stroke-linejoin="round" d="M55.9073287,20.2868852 C57.3318644,21.3130683 56.079954,21.6180748 55.3278689,21.4881886"/>
        <path fill="#1B1A1C" d="M55.5285988 7.12483395C56.0193575 7.25850766 56.6370144 7.2375969 56.7205504 7.86734861 57.0177092 8.03091583 57.3271294 8.09367568 57.6957838 7.66934485 58.4370174 6.4235715 58.5339631 5.47480264 58.2646689 4.30327869 57.5416793 6.02752267 54.530521 6.18154702 55.5285988 7.12483395zM50.1623787 50.1682484C49.658421 50.2518997 49.7024621 51.0577286 50.1156336 51.0235325 51.4832816 50.76615 52.751497 49.5755844 53.9800864 48.3608638 54.126264 48.2851551 54.2097123 47.8011786 53.7809137 47.9972041 53.0947274 48.7581131 51.7079682 49.8494695 50.1623787 50.1682484zM53.0564562 50.9841038C52.6774146 51.0455367 52.9401678 51.6637135 53.2509281 51.6385998 54.2795787 51.4495816 55.0038143 50.9711268 55.9278748 50.079059 55.9867918 49.9442857 55.8709557 49.6944319 55.5484446 49.8383894 55.0323419 50.3971863 54.2189425 50.7499999 53.0564562 50.9841038zM54.9776605 51.6611559C54.6230046 51.7107606 54.6420627 52.2738421 54.9328285 52.2535638 55.9788494 52.2714196 56.919088 51.4588882 57.7836939 50.7385792 57.8149466 50.6191007 57.6110734 50.3001474 57.4167386 50.4483526 57.0054609 50.9208675 56.0653517 51.4721265 54.9776605 51.6611559zM57.3914637 52.8392864C56.9254433 53.1580962 57.3095722 53.5030977 57.5562369 53.4827478 58.3727265 53.3295899 58.8270667 52.6061822 59.5605372 51.8833457 59.6478058 51.8382935 59.6976248 51.5502979 59.441632 51.6669464 58.4539311 52.6876898 57.9288182 52.4702385 57.3914637 52.8392864zM59.8005943 53.3859746C59.4100335 53.5388281 59.7823246 54.1200178 60.0396979 54.097737 60.891636 53.9300554 61.2856854 53.3651664 62.0509993 52.5737913 62.1420574 52.5244635 62.0790864 52.1529587 61.8119793 52.2806683 61.3845385 52.7763934 60.9294173 53.2906972 59.8005943 53.3859746zM61.5896653 54.3695143C61.4655119 54.3574891 61.304641 54.7800665 61.9406345 54.7039299 62.4574645 54.6528715 63.0019016 54.3090001 63.269305 53.7126197 63.4144448 53.4230403 63.2114761 53.4651529 63.0938204 53.5334679 62.8518755 53.9275426 62.4649137 54.2736915 61.5896653 54.3695143zM63.4271974 55.7639753C63.3051026 55.7553952 63.1592228 55.9887367 63.7846815 55.934412 64.183337 55.8915465 64.2758548 55.7271863 64.4996475 55.4912737 64.6423832 55.2846537 64.4427765 55.3147018 64.3270697 55.3634458 64.0891324 55.6446249 63.8565033 55.7211699 63.4271974 55.7639753zM64.0419534 56.3787287C63.9198561 56.3701483 63.7739765 56.6034902 64.3994367 56.5491663 64.7980902 56.5063006 64.8906092 56.3419398 65.1144008 56.1060267 65.257138 55.8994077 65.0575311 55.9294561 64.9418231 55.9781999 64.7038879 56.2593786 64.4712573 56.3359235 64.0419534 56.3787287z"/>
        <path/>
        <path stroke-linecap="round" d="M45.4918033 71.9262295C43.8856566 68.3655347 46.0441614 67.1125869 45.1106256 65.1639344M47.0546119 63.9344262C48.0571517 66.1885246 45.9773276 68.5092469 47.0252313 70.6967213M43.2145088 68.2377049C42.7258749 69.7620255 43.2721419 70.9222176 44.2622951 71.9262295M50.7757525 62.704918C50.3302015 65.4321288 48.2363852 66.4653818 48.6099784 68.5712086 49.322275 72.5861892 55.2759236 72.5515952 50.2669237 78.6885246"/>
        <path/>
        <path stroke-linecap="round" d="M52.3144944,78.0737705 C53.2532094,76.8471069 53.9183789,74.5942789 53.1430789,73.4657948 C51.9796388,71.7723532 50.1561817,70.4042854 50.4392681,67.4701117 C50.5962052,65.8434891 52.3667362,65.5863584 53.4767537,63.3196721"/>
        <path/>
        <path/>
        <path/>
        <path stroke-linecap="round" d="M56.557377 62.704918C55.1981677 65.3998535 53.1127285 64.0865841 52.2540984 68.2377049M59.6311475 62.704918C59.6311475 62.704918 59.6311475 62.704918 59.6311475 62.704918 58.7181727 63.2876644 58.509398 64.5656566 57.3254521 65.4516443 55.2849215 66.9786469 55.1777877 67.7439202 54.779575 68.7180859 54.7604046 68.7649798 54.734672 68.8088712 54.7131148 68.852459M62.704918 61.4754098C61.1705533 61.7174255 60.8165433 63.660051 59.7811768 65.1227789 58.7728287 66.5473395 57.5866798 66.2032938 56.591914 68.202667 56.5788885 68.2125766 56.5688894 68.2260256 56.557377 68.2377049M60.2459016 67.0081967C61.277545 64.9777693 62.7729893 64.9645734 63.3196721 63.3196721"/>
        <path fill="#1B1A1C" d="M33.8820984,86.7410621 L33.8114754,87.2854693 C35.2397424,87.3497995 36.5717916,87.0841092 36.8492947,86.7020724 C37.8895842,86.7428079 38.985947,86.4774267 40.0262365,85.16392 C40.377732,85.0933215 40.4452101,85.4112709 40.4233076,85.8443949 C41.1776624,85.4094279 41.9264695,84.9294811 42.2769136,84.1701749 C42.4882077,84.0980998 42.5492996,84.4042431 42.6854193,84.3591837 C43.353069,84.0608317 43.9646455,84.2376569 44.6322952,83.1083783 C46.905791,82.7634882 47.1436168,81.9074131 47.3907766,81.3740328 L47.5374742,82.1819673 C51.0908513,79.9599697 49.0756406,78.0749937 50.4098361,75.4446322 C50.2520636,74.9142183 50.1706955,75.0166796 49.9462788,75 C48.6885496,77.8021235 50.5866638,80.4168362 47.7579442,81.3110181 C47.6475752,80.2765684 47.6086286,79.5237469 47.393255,78.2608109 L46.7194803,78.2806203 C46.987844,80.1969845 47.1489561,81.8460736 45.4132826,82.5440182 C45.1295262,81.7024222 45.0358692,80.4431258 44.9039527,80.2752154 L44.6129857,80.4269958 C44.6211149,82.4010444 43.96301,83.4329316 42.6353313,83.9598824 C42.8827774,83.2237603 42.9122548,83.041724 42.5697017,82.0305158 C42.5468899,82.0816912 42.2671489,82.1290372 42.2651928,82.1596484 C42.1848577,83.4160401 42.3706119,84.3689615 40.4708897,84.8876265 C40.4839964,84.4783113 39.885057,83.9856577 39.6046288,83.7177647 C39.5909976,85.5192346 38.4391021,86.1381824 36.2573438,86.2106747 C36.3892374,86.9214761 34.7444699,86.6050982 33.8820984,86.7410621 Z"/>
        <path fill="#1B1A1C" stroke-linecap="round" d="M71.3114754 68.2377049C72.1042172 67.1500808 74.1524314 65.6998112 72.5741854 64.5491803M71.9262295 70.0819672C72.4671426 69.5147236 73.2401313 69.3860545 73.1482423 67.6229508M72.5409836 71.3114754C73.0818952 70.8860433 73.8548863 70.789542 73.7629962 69.4672131M73.7704918 72.5409836C74.0409482 72.1155504 74.4274438 72.019049 74.381498 70.6967213M75.6147541 73.1557377C75.8852104 73.013926 76.2717056 72.9817595 76.2257604 72.5409836"/>
        <path fill="#1B1A1C"/>
        <line x1="76.863" x2="77.44" y1="74.385" y2="73.77" fill="#1B1A1C" stroke-linecap="round"/>
        <path d="M56.7076945 26.4344262C56.2863954 27.6516513 58.2802714 29.818604 56.2247464 31.352459 56.2251432 30.4343814 55.4223454 30.2932711 55.3278689 29.5151699M55.3278689 30.1229508C55.2780099 31.3520148 55.2337266 32.5245718 54.7131148 32.5819672"/>
        <path d="M57.9502458 24.5901639C59.8538499 26.2470529 58.7350448 28.1543071 58.1985334 30.7377049 57.4100656 29.0386304 56.7246545 28.8308956 56.557377 27.8643886M59.4403282 20.9016393C59.7464215 22.4545585 60.8922886 23.0267473 59.7491376 25.8196721 59.3056144 25.244966 59.0911638 24.4247373 58.4016393 24.1136956"/>
        <path d="M60.557851,18.442623 C60.5492627,19.8618145 62.5202778,19.9199658 60.7107208,23.3606557 C60.4180548,22.4724645 59.6854956,22.3727882 59.6311475,21.5880289"/>
        <path fill="#D8201F" d="M31.2229289,14.2140177 C28.6592352,15.1452304 27.5104327,17.9691921 31.5012514,16.7131508 C33.5257886,15.6407495 35.3868641,14.5578115 39.4416753,15.4643382 C44.0101899,16.2122931 46.6183431,17.5309998 49.7198497,17.8278689 C49.768218,17.4392838 49.9738816,17.0506964 49.3972285,16.6621114 C44.6307595,15.7717368 42.668973,14.3698578 38.1592731,13.6894258 C35.8471591,13.5235735 33.5350429,13.2563315 31.2229289,14.2140177 Z"/>
        <path fill="#FFF" d="M36.6945983 13.5245902C36.169432 12.7945861 36.3180843 11.911171 36.2704918 11.1811647 36.6961859 11.0542367 37.6134353 10.9301073 38.1147541 11.4025723 37.3167779 11.975673 36.9410771 12.8769059 36.6945983 13.5245902zM39.5611732 13.5245902C39.4718441 12.7221731 39.1705154 11.8361844 39.48229 11.1918813 39.9393743 11.0266956 40.8604407 10.9116669 41.1885246 11.5952346 40.562805 12.1393597 40.0108569 12.633509 39.5611732 13.5245902zM41.9124373 14.1393443C41.9004428 13.4622801 41.5768189 12.8013872 42.104343 12.3331222 42.6800601 12.154075 43.0718239 12.64801 43.647541 12.9625495 42.809873 13.0575052 42.3918544 13.4724149 41.9124373 14.1393443zM44.6807885 14.7540984C44.2343396 13.9914494 44.3866506 13.548552 44.2622951 12.9579087 44.6938292 12.8917901 45.130518 12.7499645 45.4918033 13.7155087 45.221465 13.8792144 44.9511268 14.2033484 44.6807885 14.7540984zM44.8770492 18.8886435C45.1137837 18.2046251 45.3505182 18.0883371 45.5872528 17.8278689 45.6871816 18.2432255 45.8501084 18.8731847 46.1065574 19.0115408 45.7963431 19.0925282 45.3382125 19.0747934 44.8770492 18.8886435zM41.8032787 18.7198751C41.9878765 18.2176226 41.9901558 17.71537 42.6337192 17.2131148 42.7002693 17.8380124 42.6582617 18.5274525 43.0327869 18.9692362 42.5784771 19.0447705 42.0994461 19.2084981 41.8032787 18.7198751zM39.3442623 18.8469072C39.7335791 17.8818081 40.2312587 17.5761754 40.7195021 17.2131148 40.7990842 17.7939986 40.7287474 18.3748825 41.1885246 18.9557663 40.6057275 18.9889436 40.1145522 19.2212581 39.3442623 18.8469072zM36.8852459 18.3849599C37.1327768 17.6602105 37.6670561 16.8889475 38.3882231 16.5983607 38.2498046 17.1678591 38.3362694 17.8662473 38.7295082 18.2685431 37.8874897 18.5932445 37.4896326 18.3591981 36.8852459 18.3849599z"/>
      </g>
    </g>
  </g>
</svg>
